<svg width="24" height="24" viewBox="0 0 24 24" fill="none" xmlns="http://www.w3.org/2000/svg">
<path d="M14.3809 16.7056H9.66245V19.0584H5.41602V20H18.6274V19.0584H14.3809V16.7056Z" fill="white"/>
<mask id="path-2-inside-1_3647_40915" fill="white">
<rect x="4" y="4" width="16" height="11.5556" rx="1"/>
</mask>
<rect x="4" y="4" width="16" height="11.5556" rx="1" stroke="white" stroke-width="3" mask="url(#path-2-inside-1_3647_40915)"/>
<path d="M10.6999 6.68579C11.1036 6.51276 11.5387 6.42486 11.9779 6.42758C12.4211 6.42437 12.8605 6.50856 13.2711 6.67533C13.6817 6.8421 14.0553 7.08818 14.3707 7.39949C14.6861 7.7108 14.937 8.08124 15.1091 8.4896C15.2811 8.89797 15.371 9.33625 15.3735 9.77938H14.5353C14.5402 9.28194 14.396 8.79442 14.1212 8.37972C13.8465 7.96502 13.4537 7.64216 12.9937 7.45279C12.5337 7.26341 12.0275 7.21621 11.5403 7.31727C11.0532 7.41833 10.6076 7.66301 10.2609 8.01976L11.1823 8.94117H8.62598V6.42758L9.63167 7.43322C9.93258 7.11327 10.2962 6.85883 10.6999 6.68579Z" fill="white"/>
<path d="M12.8162 10.6176H14.3668L15.3299 10.6145V13.1281L14.3242 12.1225C14.0233 12.4425 13.6597 12.697 13.256 12.87C12.8523 13.0431 12.4172 13.1309 11.9779 13.1281C11.0908 13.1247 10.241 12.7707 9.61374 12.1435C8.98645 11.5162 8.6325 10.6665 8.62903 9.77938H9.4632C9.45825 10.2768 9.60246 10.7643 9.87724 11.179C10.152 11.5937 10.5447 11.9166 11.0048 12.106C11.4648 12.2954 11.971 12.3426 12.4581 12.2415C12.9453 12.1404 13.3909 11.8958 13.7376 11.539L12.8162 10.6176Z" fill="white"/>
</svg>
