<svg width="24" height="24" viewBox="0 0 24 24" fill="none" xmlns="http://www.w3.org/2000/svg">
<path d="M14.6369 9.49703C14.7671 9.62731 14.931 9.6964 15.0751 9.6964C15.1817 9.6964 15.2784 9.66087 15.3515 9.58783L17.74 7.20124C17.9137 7.02753 17.8723 6.71168 17.6472 6.48467L17.3669 6.20436C17.1419 5.97932 16.8261 5.93787 16.6504 6.11158L14.2638 8.4962C14.0901 8.66991 14.1276 8.98575 14.3566 9.21277L14.6369 9.49703ZM19.4535 11.1276H16.0759C15.8292 11.1276 15.6318 11.3802 15.6318 11.7V12.0968C15.6318 12.4166 15.8252 12.6693 16.0759 12.6693H19.4495C19.6963 12.6693 19.8937 12.4166 19.8937 12.0968V11.7C19.8937 11.3783 19.7002 11.1276 19.4535 11.1276ZM15.4995 14.2663C15.4284 14.1952 15.3297 14.1577 15.2212 14.1577C15.0711 14.1577 14.9113 14.2307 14.7829 14.359L14.5026 14.6393C14.2776 14.8644 14.2361 15.1802 14.4138 15.3559L16.8004 17.7425C16.8734 17.8155 16.9721 17.8511 17.0768 17.8511C17.2228 17.8511 17.3847 17.784 17.515 17.6517L17.7953 17.3714C18.0203 17.1464 18.0618 16.8305 17.8881 16.6548L15.4995 14.2663ZM12.3016 15.6382H11.9048C11.585 15.6382 11.3324 15.8317 11.3324 16.0784V19.452C11.3324 19.6988 11.5811 19.8962 11.9048 19.8962H12.3016C12.6214 19.8962 12.8741 19.7027 12.8741 19.452V16.0784C12.8721 15.8317 12.6214 15.6382 12.3016 15.6382ZM9.35834 14.5031C9.1333 14.2781 8.81745 14.2386 8.64177 14.4104L6.2532 16.797C6.07949 16.9707 6.12094 17.2865 6.34598 17.5135L6.62629 17.7938C6.72302 17.8906 6.83949 17.9557 6.95793 17.9833C6.99346 17.9912 7.03097 17.9952 7.06452 17.9952C7.1731 17.9952 7.26982 17.9557 7.34286 17.8866L9.72945 15.502C9.80052 15.4309 9.84 15.3322 9.84 15.2256C9.84 15.0756 9.76696 14.9157 9.63865 14.7874L9.35834 14.5031ZM8.36343 12.3041V11.9073C8.36343 11.5875 8.16998 11.3348 7.91927 11.3348H4.54568C4.29892 11.3348 4.10547 11.5875 4.10547 11.9073V12.3041C4.10547 12.6239 4.29892 12.8765 4.54568 12.8765H7.91927C8.168 12.8726 8.36343 12.6239 8.36343 12.3041ZM8.49569 9.73391C8.56675 9.80497 8.65558 9.84051 8.77403 9.84445C8.92405 9.84445 9.08395 9.77142 9.21226 9.6431L9.49257 9.36279C9.71761 9.13775 9.75906 8.82191 9.5814 8.64622L7.19876 6.25963C7.02504 6.08592 6.7092 6.12343 6.48219 6.35241L6.20188 6.63272C5.97684 6.85776 5.93539 7.1736 6.11305 7.34929L8.49569 9.73391ZM12.0943 8.36197V8.36394C12.4141 8.36394 12.6668 8.17049 12.6668 7.92373V4.54816C12.6668 4.30141 12.4181 4.104 12.0943 4.104H11.6975C11.3778 4.104 11.1251 4.29746 11.1251 4.54816V7.92176C11.1251 8.16851 11.3738 8.36197 11.6975 8.36197H12.0943Z" fill="white"/>
</svg>
