<svg width="24" height="24" viewBox="0 0 24 24" fill="none" xmlns="http://www.w3.org/2000/svg">
<path d="M11.9998 19.8074C9.8202 19.8074 7.97408 19.051 6.4614 17.5384C4.94872 16.0257 4.19238 14.1796 4.19238 12C4.19238 9.82044 4.94872 7.97432 6.4614 6.46164C7.97408 4.94897 9.8202 4.19263 11.9998 4.19263C13.1221 4.19263 14.1956 4.42425 15.2203 4.88748C16.245 5.35072 17.1233 6.0137 17.8553 6.87641V4.19263H19.8071V11.0241H12.9757V9.07224H17.0745C16.5541 8.16137 15.8426 7.4457 14.9402 6.92521C14.0378 6.40472 13.0577 6.14447 11.9998 6.14447C10.3732 6.14447 8.99066 6.71376 7.85209 7.85233C6.71351 8.99091 6.14423 10.3735 6.14423 12C6.14423 13.6265 6.71351 15.0091 7.85209 16.1477C8.99066 17.2862 10.3732 17.8555 11.9998 17.8555C13.2522 17.8555 14.3826 17.4977 15.3911 16.782C16.3995 16.0663 17.1071 15.1229 17.5137 13.9518H19.5631C19.1077 15.676 18.1806 17.0829 16.7818 18.1727C15.383 19.2625 13.7889 19.8074 11.9998 19.8074Z" fill="white"/>
</svg>
