<svg width="24" height="24" viewBox="0 0 24 24" fill="none" xmlns="http://www.w3.org/2000/svg">
<path d="M12.0002 19.0369C11.4619 19.0369 11.0069 18.8511 10.6351 18.4794C10.2634 18.1077 10.0776 17.6526 10.0776 17.1143C10.0776 16.5759 10.2634 16.1209 10.6351 15.7492C11.0069 15.3775 11.4619 15.1916 12.0002 15.1916C12.5386 15.1916 12.9936 15.3775 13.3653 15.7492C13.737 16.1209 13.9229 16.5759 13.9229 17.1143C13.9229 17.6526 13.737 18.1077 13.3653 18.4794C12.9936 18.8511 12.5386 19.0369 12.0002 19.0369ZM7.65503 14.6917L6.04 13.0383C6.79624 12.282 7.684 11.6829 8.70326 11.241C9.72252 10.799 10.8215 10.5778 12.0002 10.5773C13.1789 10.5768 14.2782 10.8011 15.298 11.2502C16.3177 11.6993 17.2052 12.3082 17.9605 13.0767L16.3454 14.6917C15.7815 14.1278 15.1277 13.6856 14.3843 13.3651C13.6409 13.0447 12.8462 12.8844 12.0002 12.8844C11.1543 12.8844 10.3596 13.0447 9.61614 13.3651C8.87271 13.6856 8.21901 14.1278 7.65503 14.6917ZM4.38651 11.4232L2.77148 9.8082C3.95071 8.60334 5.32862 7.66124 6.90519 6.9819C8.48177 6.30256 10.1801 5.96289 12.0002 5.96289C13.8203 5.96289 15.5187 6.30256 17.0953 6.9819C18.6718 7.66124 20.0497 8.60334 21.229 9.8082L19.6139 11.4232C18.627 10.4363 17.4831 9.66413 16.1824 9.10682C14.8816 8.5495 13.4876 8.27059 12.0002 8.27008C10.5129 8.26956 9.11907 8.54848 7.81884 9.10682C6.51861 9.66516 5.3745 10.4373 4.38651 11.4232Z" fill="white"/>
</svg>
