<svg width="24" height="24" viewBox="0 0 24 24" fill="none" xmlns="http://www.w3.org/2000/svg">
<path d="M20.25 11.25H19.8C19.5 7.5 16.5 4.5 12.75 4.125V3.75C12.75 3.3 12.45 3 12 3C11.55 3 11.25 3.3 11.25 3.75V4.125C7.5 4.5 4.5 7.5 4.2 11.25H3.75C3.3 11.25 3 11.55 3 12C3 12.45 3.3 12.75 3.75 12.75H4.2C4.5 16.5 7.5 19.5 11.25 19.8V20.25C11.25 20.7 11.55 21 12 21C12.45 21 12.75 20.7 12.75 20.25V19.8C16.5 19.425 19.5 16.425 19.8 12.75H20.25C20.7 12.75 21 12.45 21 12C21 11.55 20.7 11.25 20.25 11.25ZM18.3 11.25H16.425C16.125 9.375 14.625 7.875 12.75 7.575V5.7C15.675 6 18 8.325 18.3 11.25ZM12 15C10.35 15 9 13.65 9 12C9 10.35 10.35 9 12 9C13.65 9 15 10.35 15 12C15 13.65 13.65 15 12 15ZM11.25 5.7V7.575C9.375 7.875 7.875 9.375 7.575 11.25H5.7C6 8.325 8.325 6 11.25 5.7ZM5.7 12.75H7.575C7.875 14.625 9.375 16.125 11.25 16.425V18.3C8.325 18 6 15.675 5.7 12.75ZM12.75 18.3V16.425C14.625 16.125 16.125 14.625 16.425 12.75H18.3C18 15.675 15.675 18 12.75 18.3Z" fill="white"/>
<path d="M13.3333 11.3333H12.6667V10.6667C12.6667 10.2667 12.4 10 12 10C11.6 10 11.3333 10.2667 11.3333 10.6667V11.3333H10.6667C10.2667 11.3333 10 11.6 10 12C10 12.4 10.2667 12.6667 10.6667 12.6667H11.3333V13.3333C11.3333 13.7333 11.6 14 12 14C12.4 14 12.6667 13.7333 12.6667 13.3333V12.6667H13.3333C13.7333 12.6667 14 12.4 14 12C14 11.6 13.6667 11.3333 13.3333 11.3333Z" fill="white"/>
</svg>
