<svg width="24" height="24" viewBox="0 0 24 24" fill="none" xmlns="http://www.w3.org/2000/svg">
<path d="M5.28816 5.28841H18.7113V18.7116H5.28816V5.28841ZM4.64896 4.01001C4.29595 4.01001 4.00977 4.29619 4.00977 4.64921V19.3508C4.00977 19.7038 4.29595 19.99 4.64896 19.99H19.3505C19.7036 19.99 19.9897 19.7038 19.9897 19.3508V4.64921C19.9897 4.29619 19.7036 4.01001 19.3505 4.01001H4.64896Z" fill="white"/>
<path d="M12.0197 16.6342C9.44564 16.6342 7.36556 14.5557 7.36556 12C7.36556 9.44426 9.44564 7.36581 12.0197 7.36581C14.5938 7.36581 16.6739 9.44426 16.6739 12C16.6739 14.5557 14.5938 16.6342 12.0197 16.6342ZM12.0197 17.7528C15.2079 17.7528 17.7925 15.1772 17.7925 12C17.7925 8.82282 15.2079 6.24721 12.0197 6.24721C8.83153 6.24721 6.24696 8.82282 6.24696 12C6.24696 15.1772 8.83153 17.7528 12.0197 17.7528Z" fill="white"/>
<path d="M9.71155 10.5859C9.93009 10.2332 10.2269 9.93548 10.5789 9.71587L10.5833 9.71313C11.0135 9.44594 11.5096 9.30406 12.016 9.30346C12.5224 9.3027 13.0189 9.44324 13.4498 9.70925L13.4542 9.71199C13.8362 9.94886 14.1531 10.2772 14.3763 10.6674C14.3849 10.6824 14.3955 10.6958 14.4076 10.7072C14.4568 10.7539 14.5306 10.7688 14.594 10.7377L15.2977 10.3927C15.3772 10.3537 15.4101 10.2574 15.3675 10.1798C15.3252 10.1029 15.2802 10.0274 15.2327 9.95359C15.1041 9.75377 14.957 9.56647 14.7934 9.39415C14.5674 9.15619 14.3117 8.94841 14.0325 8.77596L14.0281 8.77325C13.4227 8.40058 12.7255 8.20376 12.0145 8.20484C11.3036 8.20568 10.607 8.40437 10.0026 8.77866L9.99815 8.7814C9.71944 8.95459 9.46426 9.16306 9.23894 9.40162C9.01535 9.6384 8.82307 9.90303 8.66698 10.1889C8.62457 10.2665 8.65777 10.3628 8.73735 10.4015L9.44193 10.7447C9.50547 10.7756 9.57922 10.7605 9.62832 10.7137C9.64059 10.7019 9.65109 10.6885 9.65946 10.6737C9.67627 10.6441 9.69364 10.6148 9.71155 10.5859Z" fill="white"/>
</svg>
