<svg width="24" height="24" viewBox="0 0 24 24" fill="none" xmlns="http://www.w3.org/2000/svg">
<path d="M6.91479 20.4753C6.44865 20.4753 6.04974 20.3174 5.71808 20.0015C5.38641 19.6857 5.22029 19.3055 5.21973 18.861V10.7892C5.21973 10.3453 5.38584 9.96538 5.71808 9.64951C6.05031 9.33363 6.44922 9.17542 6.91479 9.17489H7.76233V7.56054C7.76233 6.44394 8.17564 5.49228 9.00227 4.70556C9.8289 3.91883 10.8281 3.5252 12 3.52466C13.1719 3.52412 14.1714 3.91775 14.9986 4.70556C15.8258 5.49336 16.2388 6.44502 16.2377 7.56054V9.17489H17.0852C17.5513 9.17489 17.9505 9.33309 18.2828 9.64951C18.615 9.96592 18.7808 10.3458 18.7803 10.7892V18.861C18.7803 19.3049 18.6144 19.6851 18.2828 20.0015C17.9511 20.3179 17.5519 20.4759 17.0852 20.4753H6.91479ZM6.91479 18.861H17.0852V10.7892H6.91479V18.861ZM12 16.4395C12.4661 16.4395 12.8653 16.2815 13.1976 15.9657C13.5298 15.6498 13.6956 15.2696 13.6951 14.8251C13.6945 14.3806 13.5287 14.0007 13.1976 13.6854C12.8665 13.37 12.4673 13.2118 12 13.2108C11.5327 13.2097 11.1338 13.3679 10.8033 13.6854C10.4727 14.0029 10.3066 14.3828 10.3049 14.8251C10.3032 15.2674 10.4694 15.6476 10.8033 15.9657C11.1372 16.2837 11.5361 16.4416 12 16.4395ZM9.4574 9.17489H14.5426V7.56054C14.5426 6.88789 14.2954 6.31614 13.801 5.84529C13.3066 5.37444 12.7063 5.13901 12 5.13901C11.2937 5.13901 10.6934 5.37444 10.199 5.84529C9.70459 6.31614 9.4574 6.88789 9.4574 7.56054V9.17489Z" fill="white"/>
</svg>
