<svg width="24" height="24" viewBox="0 0 24 24" fill="none" xmlns="http://www.w3.org/2000/svg">
<path fill-rule="evenodd" clip-rule="evenodd" d="M12.4337 3.26074C14.5956 3.37027 16.6468 4.27758 18.1847 5.81543C19.7226 7.35331 20.6299 9.40452 20.7394 11.5664L20.7501 12C20.7501 13.7306 20.237 15.4224 19.2755 16.8613C18.3141 18.3002 16.9475 19.4217 15.3488 20.084C13.7499 20.7462 11.9904 20.9196 10.2931 20.582C8.5958 20.2444 7.0363 19.4112 5.81262 18.1875C4.58894 16.9638 3.7557 15.4043 3.41809 13.707C3.08049 12.0097 3.25389 10.2502 3.91613 8.65137C4.57839 7.05261 5.69996 5.68604 7.13879 4.72461C8.57769 3.76317 10.2696 3.25002 12.0001 3.25L12.4337 3.26074ZM6.19641 7.66016C5.25655 8.91177 4.74867 10.4348 4.75012 12C4.75076 13.3449 5.12524 14.6635 5.83215 15.8076C6.53915 16.9518 7.55144 17.8772 8.75403 18.4795C9.95649 19.0816 11.3032 19.3369 12.6427 19.2178C13.9823 19.0986 15.2626 18.6097 16.34 17.8047L16.5714 17.6318L6.36926 7.42969L6.19641 7.66016ZM15.2462 5.52051C14.0437 4.91842 12.6971 4.66309 11.3575 4.78223C10.018 4.90145 8.73761 5.39031 7.66028 6.19531L7.42883 6.36816L17.631 16.5703L17.8038 16.3398C18.7437 15.0882 19.2516 13.5652 19.2501 12C19.2495 10.6551 18.875 9.33654 18.1681 8.19238C17.4611 7.0482 16.4488 6.1228 15.2462 5.52051Z" fill="white"/>
<path d="M13.04 12.1572L16.7998 15.917V16.8018L15.7666 16.6514L11.4561 12.3408V12.1572H13.04ZM14.5254 16.4707L11.4561 16.0244V13.4014L14.5254 16.4707ZM10.2119 12.1572L11.0801 13.0254V15.9697L7.2002 15.4043V12.1572H10.2119ZM16.7998 12.1572V14.8564L14.1006 12.1572H16.7998ZM11.0801 10.1973V11.7861H10.9014L7.63184 8.5166L9.17676 8.29395L11.0801 10.1973ZM16.5898 7.22754C16.6612 7.29611 16.7316 7.36576 16.7998 7.4375V11.7861H13.7295L11.4561 9.5127V7.9668L16.5898 7.22754ZM12.6689 11.7861H11.4561V10.5732L12.6689 11.7861ZM9.84082 11.7861H7.2002V9.14551L9.84082 11.7861ZM11.0801 9.13672L10.1045 8.16113L11.0801 8.02148V9.13672Z" fill="white"/>
</svg>
