<svg width="24" height="24" viewBox="0 0 24 24" fill="none" xmlns="http://www.w3.org/2000/svg">
<path fill-rule="evenodd" clip-rule="evenodd" d="M7.41937 9.01257C6.62707 9.01257 5.86723 9.32731 5.30699 9.88755C4.74675 10.4478 4.43201 11.2076 4.43201 11.9999C4.43201 12.7922 4.74675 13.5521 5.30699 14.1123C5.86723 14.6726 6.62707 14.9873 7.41937 14.9873C8.55537 14.9873 9.44122 14.2831 10.108 13.394C10.4299 12.9605 10.7035 12.493 10.9238 11.9999L10.8361 11.8111C10.6322 11.3872 10.3884 10.9836 10.108 10.6058C9.44122 9.71679 8.55457 9.01257 7.41937 9.01257ZM13.0755 11.9999L13.1639 11.8111C13.3256 11.4773 13.567 11.0384 13.892 10.6058C14.5588 9.71679 15.4454 9.01257 16.5806 9.01257C17.3729 9.01257 18.1328 9.32731 18.693 9.88755C19.2533 10.4478 19.568 11.2076 19.568 11.9999C19.568 12.7922 19.2533 13.5521 18.693 14.1123C18.1328 14.6726 17.3729 14.9873 16.5806 14.9873C15.4454 14.9873 14.5588 14.2831 13.892 13.394C13.5701 12.9605 13.2957 12.493 13.0755 11.9999ZM12 9.83549C11.9081 9.69529 11.8085 9.55375 11.7013 9.41089C10.8744 8.30835 9.4707 7.021 7.41937 7.021C6.09887 7.021 4.83246 7.54556 3.89873 8.47929C2.965 9.41303 2.44043 10.6794 2.44043 11.9999C2.44043 13.3204 2.965 14.5869 3.89873 15.5206C4.83246 16.4543 6.09887 16.9789 7.41937 16.9789C9.4707 16.9789 10.8744 15.6915 11.7013 14.589C11.8085 14.4456 11.9081 14.3041 12 14.1644C12.0919 14.3046 12.1915 14.4461 12.2987 14.589C13.1256 15.6915 14.5293 16.9789 16.5806 16.9789C17.9011 16.9789 19.1675 16.4543 20.1013 15.5206C21.035 14.5869 21.5596 13.3204 21.5596 11.9999C21.5596 10.6794 21.035 9.41303 20.1013 8.47929C19.1675 7.54556 17.9011 7.021 16.5806 7.021C14.5301 7.021 13.1256 8.30835 12.2987 9.41089C12.1915 9.55428 12.0919 9.69582 12 9.83549Z" fill="white"/>
</svg>
