<svg width="24" height="24" viewBox="0 0 24 24" fill="none" xmlns="http://www.w3.org/2000/svg">
<path d="M8.02539 15.7527C8.2097 15.7528 8.38624 15.8265 8.5166 15.9568C8.64705 16.0872 8.7207 16.2645 8.7207 16.449V17.4656H19.3311C19.5155 17.4652 19.6925 17.5386 19.8232 17.6687C19.9539 17.7988 20.0279 17.9755 20.0283 18.1599C20.0287 18.3444 19.9554 18.5214 19.8252 18.6521C19.6952 18.7826 19.5191 18.8556 19.335 18.8562V18.8572H8.7207V19.8767L8.70801 20.0125C8.6993 20.0568 8.68621 20.1003 8.66895 20.1423C8.63415 20.2268 8.58218 20.3043 8.51758 20.3689C8.45306 20.4333 8.3763 20.4846 8.29199 20.5193C8.20776 20.5539 8.11745 20.5704 8.02637 20.5701V20.571H4.52246C4.33828 20.571 4.16159 20.498 4.03125 20.3679C3.90084 20.2375 3.82719 20.0602 3.82715 19.8757V16.449C3.82715 16.2645 3.9008 16.0872 4.03125 15.9568C4.16162 15.8265 4.33815 15.7528 4.52246 15.7527H8.02539ZM5.21875 19.1804H7.3291V17.1443H5.21875V19.1804ZM19.3848 9.92261C19.5689 9.92272 19.7457 9.99557 19.876 10.1257C20.0064 10.2562 20.0801 10.4335 20.0801 10.6179V14.0447L20.0674 14.1804C20.0587 14.225 20.0447 14.269 20.0273 14.3113C19.9926 14.3956 19.9414 14.4723 19.877 14.5369C19.8124 14.6015 19.7358 14.6533 19.6514 14.6882C19.5675 14.7229 19.4775 14.74 19.3867 14.74V14.741H15.8828C15.6985 14.7409 15.522 14.6671 15.3916 14.5369C15.2612 14.4064 15.1875 14.2292 15.1875 14.0447V13.0291H4.5752C4.39073 13.029 4.21345 12.9554 4.08301 12.825C3.95268 12.6945 3.87988 12.5172 3.87988 12.3328C3.87997 12.1486 3.95285 11.9719 4.08301 11.8416C4.21345 11.7111 4.39073 11.6375 4.5752 11.6375H15.1875V10.6179C15.1875 10.4335 15.2612 10.2562 15.3916 10.1257C15.5219 9.99558 15.6986 9.92269 15.8828 9.92261H19.3848ZM16.5771 13.3494H18.6885V11.3132H16.5771V13.3494ZM8.0957 4.54272C8.28003 4.54284 8.45657 4.61648 8.58691 4.74683C8.71725 4.8772 8.79094 5.05369 8.79102 5.23804V6.25562H19.4023C19.5867 6.25572 19.7632 6.32936 19.8936 6.45972C20.0239 6.59009 20.0976 6.76658 20.0977 6.95093C20.0977 7.13541 20.024 7.31267 19.8936 7.44312C19.7632 7.57339 19.5866 7.64711 19.4023 7.64722H8.79102V8.66675C8.79064 8.85098 8.71732 9.02781 8.58691 9.15796C8.45661 9.288 8.27979 9.36097 8.0957 9.36108H4.59375C4.40941 9.361 4.23291 9.28732 4.10254 9.15698C3.97219 9.02663 3.89855 8.8501 3.89844 8.66577V5.23804C3.89851 5.05366 3.97217 4.87721 4.10254 4.74683C4.23291 4.61645 4.40938 4.54281 4.59375 4.54272H8.0957ZM5.29004 7.96948H7.39941V5.93433H5.29004V7.96948Z" fill="white" stroke="white" stroke-width="0.25"/>
</svg>
