<?xml version="1.0" standalone="no"?>
<!DOCTYPE svg PUBLIC "-//W3C//DTD SVG 20010904//EN"
 "http://www.w3.org/TR/2001/REC-SVG-20010904/DTD/svg10.dtd">
<svg version="1.0" xmlns="http://www.w3.org/2000/svg"
 width="600.000000pt" height="600.000000pt" viewBox="0 0 600.000000 600.000000"
 preserveAspectRatio="xMidYMid meet">

<g transform="translate(0.000000,600.000000) scale(0.100000,-0.100000)"
fill="#000000" stroke="none">
<path d="M2495 5693 c-709 -37 -1642 -97 -1651 -106 -9 -9 -1 -215 31 -812 24
-440 48 -908 54 -1040 16 -345 14 -970 -5 -1383 -9 -196 -16 -438 -17 -537
l-2 -180 50 -13 c33 -8 125 -12 270 -12 184 0 277 6 566 36 l346 37 489 -78
489 -79 465 38 c255 21 604 46 775 56 l310 17 225 -43 c123 -24 228 -40 232
-36 11 11 15 4029 3 4040 -5 6 -89 15 -185 22 -96 6 -393 27 -660 46 -481 34
-490 34 -1105 32 -341 -1 -647 -3 -680 -5z m586 -1675 c891 -576 1567 -1018
1565 -1025 -3 -6 -19 -77 -36 -158 -40 -186 -71 -276 -170 -481 l-79 -164
-248 0 -248 0 -1085 1121 c-1404 1451 -1501 1552 -1498 1560 5 13 202 157 216
158 7 1 719 -455 1583 -1011z m1043 901 c117 -67 173 -105 186 -129 7 -14 0
-92 -25 -282 -47 -355 -41 -328 -72 -328 -34 0 -287 173 -583 398 -229 175
-264 204 -249 212 8 4 91 24 184 45 204 45 311 75 385 109 30 14 61 25 69 25
7 1 54 -22 105 -50z m-2287 -1961 c205 -179 652 -613 641 -623 -2 -3 -61 -20
-130 -39 -69 -19 -179 -55 -245 -79 -66 -25 -144 -52 -173 -61 -60 -18 -185
-21 -225 -6 -14 5 -67 43 -118 84 -50 40 -127 97 -170 126 -43 28 -81 59 -84
68 -11 26 14 96 123 351 129 304 156 361 166 361 4 0 101 -82 215 -182z"/>
<path d="M3830 738 c-97 -234 -151 -353 -171 -373 -16 -17 -29 -34 -29 -38 0
-4 36 -7 80 -7 62 0 80 3 80 14 0 8 -6 16 -12 18 -15 5 14 110 35 125 6 5 73
7 149 5 l136 -4 26 -60 c14 -32 26 -68 26 -79 0 -17 8 -19 95 -19 52 0 95 4
95 8 0 5 -9 17 -21 28 -28 25 -73 114 -62 124 4 4 35 14 67 22 90 22 83 37
-19 40 l-86 3 -111 268 c-61 147 -116 267 -123 267 -7 0 -77 -154 -155 -342z
m189 -42 c28 -77 51 -143 51 -148 0 -10 -230 -11 -230 0 -1 18 116 300 121
294 4 -4 30 -70 58 -146z"/>
<path d="M1915 1052 c-120 -41 -207 -119 -246 -221 -17 -43 -23 -77 -23 -146
0 -78 3 -98 28 -152 113 -246 472 -308 677 -116 88 83 121 160 120 288 -1 164
-95 289 -259 344 -79 27 -224 28 -297 3z m227 -63 c111 -57 170 -153 176 -289
12 -254 -114 -385 -315 -325 -170 51 -259 293 -183 499 48 127 195 180 322
115z"/>
<path d="M2730 1030 c-12 -43 -13 -80 -2 -80 5 0 17 9 27 20 16 18 31 20 127
20 l108 0 0 -303 c0 -251 -3 -307 -15 -323 -30 -39 -21 -44 85 -44 78 0 100 3
100 14 0 7 -7 19 -15 26 -13 11 -15 59 -15 321 l0 309 95 0 c91 0 97 -1 121
-27 31 -33 41 -23 46 45 l3 52 -328 3 -327 2 -10 -35z"/>
<path d="M5005 1052 l-50 -17 0 -57 c1 -78 16 -91 46 -38 86 152 273 72 256
-111 -10 -118 -99 -254 -262 -404 -52 -47 -92 -91 -89 -98 3 -9 63 -11 236 -9
259 3 261 4 272 70 3 20 8 52 12 70 9 44 -10 42 -50 -5 l-32 -36 -132 -5 c-73
-3 -132 -1 -132 4 0 5 19 23 41 39 23 17 80 71 128 120 167 175 204 328 101
426 -21 20 -60 44 -86 53 -63 21 -193 20 -259 -2z"/>
<path d="M570 1050 c0 -6 8 -13 18 -17 53 -19 52 -12 52 -344 0 -301 -1 -309
-21 -328 -12 -11 -19 -24 -15 -29 6 -10 218 -25 356 -25 195 0 346 122 385
311 45 215 -73 398 -275 431 -86 14 -500 15 -500 1z m360 -61 c213 -34 322
-190 280 -401 -16 -84 -45 -133 -99 -169 -90 -59 -239 -77 -302 -36 l-26 17
-7 291 c-3 159 -4 294 -1 300 8 12 74 11 155 -2z"/>
</g>
</svg>
