<?xml version="1.0" standalone="no"?>
<!DOCTYPE svg PUBLIC "-//W3C//DTD SVG 20010904//EN"
 "http://www.w3.org/TR/2001/REC-SVG-20010904/DTD/svg10.dtd">
<svg version="1.0" xmlns="http://www.w3.org/2000/svg"
 width="600.000000pt" height="78.000000pt" viewBox="0 0 600.000000 78.000000"
 preserveAspectRatio="xMidYMid meet">

<g transform="translate(0.000000,78.000000) scale(0.100000,-0.100000)"
fill="#000000" stroke="none">
<path d="M1610 675 l0 -65 161 0 c125 0 159 3 153 13 -4 6 -25 36 -47 65 l-39
52 -114 0 -114 0 0 -65z"/>
<path d="M1970 538 c0 -120 4 -198 9 -193 5 6 30 34 55 64 l46 55 0 138 0 138
-55 0 -55 0 0 -202z"/>
<path d="M2504 609 c-118 -157 -178 -236 -199 -265 -12 -17 -15 -44 -13 -130
l3 -109 55 73 c107 143 136 181 225 298 49 66 109 143 132 171 76 95 77 93
-20 93 l-84 0 -99 -131z"/>
<path d="M3120 633 l0 -108 100 100 c55 55 100 103 100 107 0 5 -45 8 -100 8
l-100 0 0 -107z"/>
<path d="M4927 628 c-4 -62 -7 -211 -7 -330 l0 -218 149 0 c164 0 200 8 250
54 62 57 71 91 71 276 0 152 -2 169 -24 215 -45 95 -95 115 -295 115 l-138 0
-6 -112z m323 -207 l0 -198 -30 -7 c-17 -3 -66 -9 -110 -12 l-80 -7 0 206 1
206 52 4 c29 2 78 4 110 5 l57 2 0 -199z"/>
<path d="M5510 675 l0 -65 190 0 189 0 41 59 c22 33 40 62 40 65 0 4 -103 6
-230 6 l-230 0 0 -65z"/>
<path d="M1098 715 c-99 -37 -170 -116 -202 -226 -20 -66 -20 -106 -1 -166 42
-131 126 -211 246 -233 27 -5 63 -7 79 -3 29 5 30 8 30 59 l0 54 -37 1 c-71 1
-96 8 -131 37 -54 43 -76 94 -76 172 1 75 16 109 69 160 33 32 41 35 104 37
76 2 102 -10 157 -76 26 -32 29 -41 29 -110 -1 -98 -7 -117 -51 -162 l-36 -37
42 -27 c23 -14 47 -28 55 -31 17 -7 58 48 91 122 73 166 -24 381 -196 431 -42
13 -138 11 -172 -2z"/>
<path d="M2290 630 c0 -55 2 -100 5 -100 3 0 31 34 62 76 32 42 66 87 76 100
l19 24 -81 0 -81 0 0 -100z"/>
<path d="M30 618 c0 -107 -11 -88 156 -260 l94 -96 34 41 34 41 -31 40 c-18
22 -57 68 -87 101 -31 33 -87 97 -124 143 -38 45 -71 82 -73 82 -1 0 -3 -42
-3 -92z"/>
<path d="M3730 395 l0 -315 165 0 165 0 48 61 c26 33 48 64 50 69 2 4 -65 5
-148 2 l-150 -5 -1 204 -1 204 -54 48 c-30 26 -59 47 -64 47 -6 0 -10 -114
-10 -315z"/>
<path d="M673 641 l-53 -59 0 -176 0 -177 60 -64 60 -64 0 299 c0 165 -3 300
-7 300 -5 0 -32 -27 -60 -59z"/>
<path d="M3384 634 c-32 -38 -107 -120 -166 -182 l-108 -115 0 -74 0 -75 158
163 c87 90 179 187 204 214 l46 50 -37 43 -38 43 -59 -67z"/>
<path d="M4542 638 c-17 -35 -70 -137 -118 -228 -143 -273 -164 -315 -164
-322 0 -5 31 -8 68 -8 l68 0 32 62 c17 35 56 108 86 163 30 55 68 128 85 162
17 34 35 64 41 68 6 4 5 15 -4 33 -7 15 -21 51 -30 80 -10 28 -21 52 -25 52
-4 0 -21 -28 -39 -62z"/>
<path d="M1700 553 c0 -5 -20 -35 -45 -68 l-45 -60 0 -172 0 -173 55 0 55 0 0
240 c0 153 -4 240 -10 240 -5 0 -10 -3 -10 -7z"/>
<path d="M522 466 c-23 -28 -70 -82 -103 -121 -34 -38 -70 -82 -81 -97 l-19
-28 38 -41 38 -41 88 101 88 100 -3 89 -3 88 -43 -50z"/>
<path d="M5510 403 l0 -66 122 7 c136 7 132 5 177 89 l20 37 -160 0 -159 0 0
-67z"/>
<path d="M30 340 c0 -58 -3 -136 -6 -175 l-6 -70 60 59 c59 57 60 60 64 118
l3 59 -57 57 -58 56 0 -104z"/>
<path d="M1789 401 l-37 -6 109 -144 c59 -79 114 -150 122 -158 9 -10 32 -13
75 -11 l61 3 -79 105 c-186 248 -160 226 -251 211z"/>
<path d="M3318 230 l-153 -149 96 -1 96 0 109 104 109 104 -45 46 c-24 25 -48
46 -52 46 -4 0 -76 -67 -160 -150z"/>
<path d="M4622 225 l-72 -145 130 0 c72 0 130 1 130 3 0 7 -61 170 -70 187 -6
11 -8 20 -5 20 3 0 -4 18 -15 40 -11 22 -22 40 -23 40 -1 0 -35 -65 -75 -145z"/>
<path d="M2550 233 c-24 -32 -59 -78 -78 -103 l-33 -45 86 -3 c47 -1 122 -1
165 0 l80 3 -80 100 c-45 55 -84 101 -89 103 -4 1 -28 -23 -51 -55z"/>
<path d="M5510 140 l0 -60 203 0 202 0 33 60 33 60 -235 0 -236 0 0 -60z"/>
</g>
</svg>
