<svg width="31" height="30" viewBox="0 0 31 30" fill="none" xmlns="http://www.w3.org/2000/svg">
<path fill-rule="evenodd" clip-rule="evenodd" d="M21.7384 17.5001V12.5001C21.7384 11.3176 21.7384 10.5001 21.6934 9.85007C21.6509 9.21632 21.5696 8.84757 21.4521 8.56257C21.2649 8.10813 20.9896 7.69524 20.642 7.34769C20.2945 7.00014 19.8816 6.72481 19.4271 6.53757C19.1459 6.42132 18.7771 6.34007 18.1396 6.29632C17.4946 6.25257 16.6646 6.25132 15.4896 6.25132C14.3146 6.25132 13.4896 6.25132 12.8396 6.29632C12.2059 6.34007 11.8371 6.42132 11.5521 6.53757C10.6358 6.9181 9.90768 7.64626 9.52715 8.56257C9.4109 8.84382 9.32965 9.21382 9.2859 9.85007C9.24215 10.4951 9.24215 11.3126 9.24215 12.5001V17.5001C9.24215 18.6826 9.24215 19.5001 9.2859 20.1501C9.32965 20.7838 9.4109 21.1526 9.52715 21.4376C9.90715 22.3563 10.6396 23.0876 11.5521 23.4626C11.8334 23.5788 12.2034 23.6601 12.8396 23.7038C13.4846 23.7476 14.3021 23.7488 15.4896 23.7488C16.6771 23.7488 17.4896 23.7488 18.1396 23.7038C18.7734 23.6601 19.1421 23.5788 19.4271 23.4626C19.8816 23.2753 20.2945 23 20.642 22.6524C20.9896 22.3049 21.2649 21.892 21.4521 21.4376C21.5696 21.1563 21.6496 20.7863 21.6934 20.1501C21.7384 19.5051 21.7384 18.6751 21.7384 17.5001ZM8.3634 8.08757C7.9834 9.00632 7.9834 10.1751 7.9834 12.5001V17.5001C7.9834 19.8251 7.9834 21.0001 8.3634 21.9126C8.8709 23.1376 9.8384 24.1126 11.0634 24.6126C11.9821 24.9926 13.1509 24.9926 15.4759 24.9926C17.8009 24.9926 18.9759 24.9926 19.8884 24.6126C20.4944 24.3631 21.0451 23.9961 21.5085 23.5326C21.9719 23.0692 22.3389 22.5186 22.5884 21.9126C22.9684 20.9938 22.9684 19.8251 22.9684 17.5001V12.5001C22.9684 10.1751 22.9684 9.00007 22.5884 8.08757C22.3389 7.48153 21.9719 6.93091 21.5085 6.46749C21.0451 6.00407 20.4944 5.63703 19.8884 5.38757C18.9696 5.00757 17.8009 5.00757 15.4759 5.00757C13.1509 5.00757 11.9759 5.00757 11.0634 5.38757C10.4574 5.63703 9.90674 6.00407 9.44332 6.46749C8.9799 6.93091 8.61286 7.48153 8.3634 8.08757Z" fill="white"/>
<path d="M14.2393 8.75C14.2393 8.41848 14.371 8.10054 14.6054 7.86612C14.8398 7.6317 15.1577 7.5 15.4893 7.5C15.8208 7.5 16.1387 7.6317 16.3731 7.86612C16.6076 8.10054 16.7393 8.41848 16.7393 8.75V13.75C16.7393 14.0815 16.6076 14.3995 16.3731 14.6339C16.1387 14.8683 15.8208 15 15.4893 15C15.1577 15 14.8398 14.8683 14.6054 14.6339C14.371 14.3995 14.2393 14.0815 14.2393 13.75V8.75Z" fill="white"/>
<path d="M17.5977 4.12134L13.355 4.12134L15.4763 2.00002L17.5977 4.12134Z" fill="white"/>
</svg>
