<svg width="31" height="30" viewBox="0 0 31 30" fill="none" xmlns="http://www.w3.org/2000/svg">
<path fill-rule="evenodd" clip-rule="evenodd" d="M21.7443 17.5001V12.5001C21.7443 11.3176 21.7443 10.5001 21.6993 9.85007C21.6568 9.21632 21.5755 8.84757 21.458 8.56257C21.2708 8.10813 20.9954 7.69524 20.6479 7.34769C20.3003 7.00014 19.8874 6.72481 19.433 6.53757C19.1518 6.42132 18.783 6.34007 18.1455 6.29632C17.5005 6.25257 16.6705 6.25132 15.4955 6.25132C14.3205 6.25132 13.4955 6.25132 12.8455 6.29632C12.2118 6.34007 11.843 6.42132 11.558 6.53757C10.6417 6.9181 9.91354 7.64626 9.53301 8.56257C9.41676 8.84382 9.33551 9.21382 9.29176 9.85007C9.24801 10.4951 9.24801 11.3126 9.24801 12.5001V17.5001C9.24801 18.6826 9.24801 19.5001 9.29176 20.1501C9.33551 20.7838 9.41676 21.1526 9.53301 21.4376C9.91301 22.3563 10.6455 23.0876 11.558 23.4626C11.8393 23.5788 12.2093 23.6601 12.8455 23.7038C13.4905 23.7476 14.308 23.7488 15.4955 23.7488C16.683 23.7488 17.4955 23.7488 18.1455 23.7038C18.7793 23.6601 19.148 23.5788 19.433 23.4626C19.8874 23.2753 20.3003 23 20.6479 22.6524C20.9954 22.3049 21.2708 21.892 21.458 21.4376C21.5755 21.1563 21.6555 20.7863 21.6993 20.1501C21.7443 19.5051 21.7443 18.6751 21.7443 17.5001ZM8.36926 8.08757C7.98926 9.00632 7.98926 10.1751 7.98926 12.5001V17.5001C7.98926 19.8251 7.98926 21.0001 8.36926 21.9126C8.87676 23.1376 9.84426 24.1126 11.0693 24.6126C11.988 24.9926 13.1568 24.9926 15.4818 24.9926C17.8068 24.9926 18.9818 24.9926 19.8943 24.6126C20.5003 24.3631 21.0509 23.9961 21.5143 23.5326C21.9778 23.0692 22.3448 22.5186 22.5943 21.9126C22.9743 20.9938 22.9743 19.8251 22.9743 17.5001V12.5001C22.9743 10.1751 22.9743 9.00007 22.5943 8.08757C22.3448 7.48153 21.9778 6.93091 21.5143 6.46749C21.0509 6.00407 20.5003 5.63703 19.8943 5.38757C18.9755 5.00757 17.8068 5.00757 15.4818 5.00757C13.1568 5.00757 11.9818 5.00757 11.0693 5.38757C10.4632 5.63703 9.9126 6.00407 9.44918 6.46749C8.98576 6.93091 8.61872 7.48153 8.36926 8.08757Z" fill="white"/>
<path d="M14.2451 8.75C14.2451 8.41848 14.3768 8.10054 14.6112 7.86612C14.8457 7.6317 15.1636 7.5 15.4951 7.5C15.8266 7.5 16.1446 7.6317 16.379 7.86612C16.6134 8.10054 16.7451 8.41848 16.7451 8.75V13.75C16.7451 14.0815 16.6134 14.3995 16.379 14.6339C16.1446 14.8683 15.8266 15 15.4951 15C15.1636 15 14.8457 14.8683 14.6112 14.6339C14.3768 14.3995 14.2451 14.0815 14.2451 13.75V8.75Z" fill="white"/>
<path d="M6.61621 13L6.61621 17.2426L4.49489 15.1213L6.61621 13Z" fill="white"/>
</svg>
