<svg width="31" height="30" viewBox="0 0 31 30" fill="none" xmlns="http://www.w3.org/2000/svg">
<path fill-rule="evenodd" clip-rule="evenodd" d="M9.23426 17.5001V12.5001C9.23426 11.3176 9.23426 10.5001 9.27926 9.85007C9.32176 9.21632 9.40301 8.84757 9.52051 8.56257C9.70775 8.10813 9.98308 7.69524 10.3306 7.34769C10.6782 7.00014 11.0911 6.72481 11.5455 6.53757C11.8268 6.42132 12.1955 6.34007 12.833 6.29632C13.478 6.25257 14.308 6.25132 15.483 6.25132C16.658 6.25132 17.483 6.25132 18.133 6.29632C18.7668 6.34007 19.1355 6.42132 19.4205 6.53757C20.3368 6.9181 21.065 7.64626 21.4455 8.56257C21.5618 8.84382 21.643 9.21382 21.6868 9.85007C21.7305 10.4951 21.7305 11.3126 21.7305 12.5001V17.5001C21.7305 18.6826 21.7305 19.5001 21.6868 20.1501C21.643 20.7838 21.5618 21.1526 21.4455 21.4376C21.0655 22.3563 20.333 23.0876 19.4205 23.4626C19.1393 23.5788 18.7693 23.6601 18.133 23.7038C17.488 23.7476 16.6705 23.7488 15.483 23.7488C14.2955 23.7488 13.483 23.7488 12.833 23.7038C12.1993 23.6601 11.8305 23.5788 11.5455 23.4626C11.0911 23.2753 10.6782 23 10.3306 22.6524C9.98308 22.3049 9.70775 21.892 9.52051 21.4376C9.40301 21.1563 9.32301 20.7863 9.27926 20.1501C9.23426 19.5051 9.23426 18.6751 9.23426 17.5001ZM22.6093 8.08757C22.9893 9.00632 22.9893 10.1751 22.9893 12.5001V17.5001C22.9893 19.8251 22.9893 21.0001 22.6093 21.9126C22.1018 23.1376 21.1343 24.1126 19.9093 24.6126C18.9905 24.9926 17.8218 24.9926 15.4968 24.9926C13.1718 24.9926 11.9968 24.9926 11.0843 24.6126C10.4782 24.3631 9.9276 23.9961 9.46418 23.5326C9.00076 23.0692 8.63372 22.5186 8.38426 21.9126C8.00426 20.9938 8.00426 19.8251 8.00426 17.5001V12.5001C8.00426 10.1751 8.00426 9.00007 8.38426 8.08757C8.63372 7.48153 9.00076 6.93091 9.46418 6.46749C9.9276 6.00407 10.4782 5.63703 11.0843 5.38757C12.003 5.00757 13.1718 5.00757 15.4968 5.00757C17.8218 5.00757 18.9968 5.00757 19.9093 5.38757C20.5153 5.63703 21.0659 6.00407 21.5293 6.46749C21.9928 6.93091 22.3598 7.48153 22.6093 8.08757Z" fill="white"/>
<path d="M16.7334 8.75C16.7334 8.41848 16.6017 8.10054 16.3673 7.86612C16.1329 7.6317 15.8149 7.5 15.4834 7.5C15.1519 7.5 14.8339 7.6317 14.5995 7.86612C14.3651 8.10054 14.2334 8.41848 14.2334 8.75V13.75C14.2334 14.0815 14.3651 14.3995 14.5995 14.6339C14.8339 14.8683 15.1519 15 15.4834 15C15.8149 15 16.1329 14.8683 16.3673 14.6339C16.6017 14.3995 16.7334 14.0815 16.7334 13.75V8.75Z" fill="white"/>
<path d="M24.3623 13L24.3623 17.2426L26.4836 15.1213L24.3623 13Z" fill="white"/>
</svg>
