<svg width="31" height="30" viewBox="0 0 31 30" fill="none" xmlns="http://www.w3.org/2000/svg">
<path fill-rule="evenodd" clip-rule="evenodd" d="M21.7521 17.5001V12.5001C21.7521 11.3176 21.7521 10.5001 21.7071 9.85007C21.6646 9.21632 21.5833 8.84757 21.4658 8.56257C21.2786 8.10813 21.0032 7.69524 20.6557 7.34769C20.3082 7.00014 19.8953 6.72481 19.4408 6.53757C19.1596 6.42132 18.7908 6.34007 18.1533 6.29632C17.5083 6.25257 16.6783 6.25132 15.5033 6.25132C14.3283 6.25132 13.5033 6.25132 12.8533 6.29632C12.2196 6.34007 11.8508 6.42132 11.5658 6.53757C10.6495 6.9181 9.92135 7.64626 9.54082 8.56257C9.42457 8.84382 9.34332 9.21382 9.29957 9.85007C9.25582 10.4951 9.25582 11.3126 9.25582 12.5001V17.5001C9.25582 18.6826 9.25582 19.5001 9.29957 20.1501C9.34332 20.7838 9.42457 21.1526 9.54082 21.4376C9.92082 22.3563 10.6533 23.0876 11.5658 23.4626C11.8471 23.5788 12.2171 23.6601 12.8533 23.7038C13.4983 23.7476 14.3158 23.7488 15.5033 23.7488C16.6908 23.7488 17.5033 23.7488 18.1533 23.7038C18.7871 23.6601 19.1558 23.5788 19.4408 23.4626C19.8953 23.2753 20.3082 23 20.6557 22.6524C21.0032 22.3049 21.2786 21.892 21.4658 21.4376C21.5833 21.1563 21.6633 20.7863 21.7071 20.1501C21.7521 19.5051 21.7521 18.6751 21.7521 17.5001ZM8.37707 8.08757C7.99707 9.00632 7.99707 10.1751 7.99707 12.5001V17.5001C7.99707 19.8251 7.99707 21.0001 8.37707 21.9126C8.88457 23.1376 9.85207 24.1126 11.0771 24.6126C11.9958 24.9926 13.1646 24.9926 15.4896 24.9926C17.8146 24.9926 18.9896 24.9926 19.9021 24.6126C20.5081 24.3631 21.0587 23.9961 21.5222 23.5326C21.9856 23.0692 22.3526 22.5186 22.6021 21.9126C22.9821 20.9938 22.9821 19.8251 22.9821 17.5001V12.5001C22.9821 10.1751 22.9821 9.00007 22.6021 8.08757C22.3526 7.48153 21.9856 6.93091 21.5222 6.46749C21.0587 6.00407 20.5081 5.63703 19.9021 5.38757C18.9833 5.00757 17.8146 5.00757 15.4896 5.00757C13.1646 5.00757 11.9896 5.00757 11.0771 5.38757C10.471 5.63703 9.92041 6.00407 9.45699 6.46749C8.99357 6.93091 8.62653 7.48153 8.37707 8.08757Z" fill="white"/>
<path d="M14.2393 19.3142C14.2393 19.6457 14.371 19.9637 14.6054 20.1981C14.8398 20.4325 15.1577 20.5642 15.4893 20.5642C15.8208 20.5642 16.1387 20.4325 16.3731 20.1981C16.6076 19.9637 16.7393 19.6457 16.7393 19.3142V14.3142C16.7393 13.9827 16.6076 13.6647 16.3731 13.4303C16.1387 13.1959 15.8208 13.0642 15.4893 13.0642C15.1577 13.0642 14.8398 13.1959 14.6054 13.4303C14.371 13.6647 14.2393 13.9827 14.2393 14.3142V19.3142Z" fill="white"/>
<path d="M13.3672 9.62134L17.6098 9.62134L15.4885 7.50002L13.3672 9.62134Z" fill="white"/>
</svg>
