<svg width="31" height="30" viewBox="0 0 31 30" fill="none" xmlns="http://www.w3.org/2000/svg">
<path fill-rule="evenodd" clip-rule="evenodd" d="M21.7394 17.5001V12.5001C21.7394 11.3176 21.7394 10.5001 21.6944 9.85007C21.6519 9.21632 21.5706 8.84757 21.4531 8.56257C21.2659 8.10813 20.9905 7.69524 20.643 7.34769C20.2955 7.00014 19.8826 6.72481 19.4281 6.53757C19.1469 6.42132 18.7781 6.34007 18.1406 6.29632C17.4956 6.25257 16.6656 6.25132 15.4906 6.25132C14.3156 6.25132 13.4906 6.25132 12.8406 6.29632C12.2069 6.34007 11.8381 6.42132 11.5531 6.53757C10.6368 6.9181 9.90866 7.64626 9.52812 8.56257C9.41187 8.84382 9.33063 9.21382 9.28688 9.85007C9.24313 10.4951 9.24312 11.3126 9.24312 12.5001V17.5001C9.24312 18.6826 9.24313 19.5001 9.28688 20.1501C9.33063 20.7838 9.41187 21.1526 9.52812 21.4376C9.90812 22.3563 10.6406 23.0876 11.5531 23.4626C11.8344 23.5788 12.2044 23.6601 12.8406 23.7038C13.4856 23.7476 14.3031 23.7488 15.4906 23.7488C16.6781 23.7488 17.4906 23.7488 18.1406 23.7038C18.7744 23.6601 19.1431 23.5788 19.4281 23.4626C19.8826 23.2753 20.2955 23 20.643 22.6524C20.9905 22.3049 21.2659 21.892 21.4531 21.4376C21.5706 21.1563 21.6506 20.7863 21.6944 20.1501C21.7394 19.5051 21.7394 18.6751 21.7394 17.5001ZM8.36437 8.08757C7.98437 9.00632 7.98438 10.1751 7.98438 12.5001V17.5001C7.98438 19.8251 7.98437 21.0001 8.36437 21.9126C8.87187 23.1376 9.83938 24.1126 11.0644 24.6126C11.9831 24.9926 13.1519 24.9926 15.4769 24.9926C17.8019 24.9926 18.9769 24.9926 19.8894 24.6126C20.4954 24.3631 21.046 23.9961 21.5095 23.5326C21.9729 23.0692 22.3399 22.5186 22.5894 21.9126C22.9694 20.9938 22.9694 19.8251 22.9694 17.5001V12.5001C22.9694 10.1751 22.9694 9.00007 22.5894 8.08757C22.3399 7.48153 21.9729 6.93091 21.5095 6.46749C21.046 6.00407 20.4954 5.63703 19.8894 5.38757C18.9706 5.00757 17.8019 5.00757 15.4769 5.00757C13.1519 5.00757 11.9769 5.00757 11.0644 5.38757C10.4583 5.63703 9.90771 6.00407 9.44429 6.46749C8.98087 6.93091 8.61384 7.48153 8.36437 8.08757Z" fill="white"/>
<path d="M20.4893 10C20.4893 8.625 19.3705 7.5 17.9893 7.5H16.7393C16.4077 7.5 16.0898 7.6317 15.8554 7.86612C15.621 8.10054 15.4893 8.41848 15.4893 8.75V13.75C15.4893 14.0815 15.621 14.3995 15.8554 14.6339C16.0898 14.8683 16.4077 15 16.7393 15H19.2393C19.5708 15 19.8887 14.8683 20.1231 14.6339C20.3576 14.3995 20.4893 14.0815 20.4893 13.75V10Z" fill="white"/>
</svg>
