<svg width="31" height="30" viewBox="0 0 31 30" fill="none" xmlns="http://www.w3.org/2000/svg">
<path fill-rule="evenodd" clip-rule="evenodd" d="M21.7394 17.4999V12.4999C21.7394 11.3174 21.7394 10.4999 21.6944 9.84995C21.6519 9.2162 21.5706 8.84745 21.4531 8.56245C21.2659 8.10801 20.9905 7.69512 20.643 7.34757C20.2955 7.00002 19.8826 6.72469 19.4281 6.53745C19.1469 6.4212 18.7781 6.33995 18.1406 6.2962C17.4956 6.25245 16.6656 6.2512 15.4906 6.2512C14.3156 6.2512 13.4906 6.2512 12.8406 6.2962C12.2069 6.33995 11.8381 6.4212 11.5531 6.53745C10.6368 6.91798 9.90866 7.64614 9.52812 8.56245C9.41187 8.8437 9.33063 9.2137 9.28688 9.84995C9.24313 10.4949 9.24312 11.3124 9.24312 12.4999V17.4999C9.24312 18.6824 9.24313 19.4999 9.28688 20.1499C9.33063 20.7837 9.41187 21.1524 9.52812 21.4374C9.90812 22.3562 10.6406 23.0874 11.5531 23.4624C11.8344 23.5787 12.2044 23.6599 12.8406 23.7037C13.4856 23.7474 14.3031 23.7487 15.4906 23.7487C16.6781 23.7487 17.4906 23.7487 18.1406 23.7037C18.7744 23.6599 19.1431 23.5787 19.4281 23.4624C19.8826 23.2752 20.2955 22.9999 20.643 22.6523C20.9905 22.3048 21.2659 21.8919 21.4531 21.4374C21.5706 21.1562 21.6506 20.7862 21.6944 20.1499C21.7394 19.5049 21.7394 18.6749 21.7394 17.4999ZM8.36437 8.08745C7.98437 9.0062 7.98438 10.1749 7.98438 12.4999V17.4999C7.98438 19.8249 7.98437 20.9999 8.36437 21.9124C8.87187 23.1374 9.83938 24.1124 11.0644 24.6124C11.9831 24.9924 13.1519 24.9924 15.4769 24.9924C17.8019 24.9924 18.9769 24.9924 19.8894 24.6124C20.4954 24.363 21.046 23.9959 21.5095 23.5325C21.9729 23.0691 22.3399 22.5185 22.5894 21.9124C22.9694 20.9937 22.9694 19.8249 22.9694 17.4999V12.4999C22.9694 10.1749 22.9694 8.99995 22.5894 8.08745C22.3399 7.48141 21.9729 6.93078 21.5095 6.46736C21.046 6.00394 20.4954 5.63691 19.8894 5.38745C18.9706 5.00745 17.8019 5.00745 15.4769 5.00745C13.1519 5.00745 11.9769 5.00745 11.0644 5.38745C10.4583 5.63691 9.90771 6.00394 9.44429 6.46736C8.98087 6.93078 8.61384 7.48141 8.36437 8.08745Z" fill="white"/>
<path d="M14.2393 8.75C14.2393 8.41848 14.371 8.10054 14.6054 7.86612C14.8398 7.6317 15.1577 7.5 15.4893 7.5C15.8208 7.5 16.1387 7.6317 16.3731 7.86612C16.6076 8.10054 16.7393 8.41848 16.7393 8.75V13.75C16.7393 14.0815 16.6076 14.3995 16.3731 14.6339C16.1387 14.8683 15.8208 15 15.4893 15C15.1577 15 14.8398 14.8683 14.6054 14.6339C14.371 14.3995 14.2393 14.0815 14.2393 13.75V8.75Z" fill="white"/>
</svg>
