<svg width="31" height="30" viewBox="0 0 31 30" fill="none" xmlns="http://www.w3.org/2000/svg">
<path fill-rule="evenodd" clip-rule="evenodd" d="M21.7521 17.5001V12.5001C21.7521 11.3176 21.7521 10.5001 21.7071 9.85007C21.6646 9.21632 21.5833 8.84757 21.4658 8.56257C21.2786 8.10813 21.0032 7.69524 20.6557 7.34769C20.3082 7.00014 19.8953 6.72481 19.4408 6.53757C19.1596 6.42132 18.7908 6.34007 18.1533 6.29632C17.5083 6.25257 16.6783 6.25132 15.5033 6.25132C14.3283 6.25132 13.5033 6.25132 12.8533 6.29632C12.2196 6.34007 11.8508 6.42132 11.5658 6.53757C10.6495 6.9181 9.92135 7.64626 9.54082 8.56257C9.42457 8.84382 9.34332 9.21382 9.29957 9.85007C9.25582 10.4951 9.25582 11.3126 9.25582 12.5001V17.5001C9.25582 18.6826 9.25582 19.5001 9.29957 20.1501C9.34332 20.7838 9.42457 21.1526 9.54082 21.4376C9.92082 22.3563 10.6533 23.0876 11.5658 23.4626C11.8471 23.5788 12.2171 23.6601 12.8533 23.7038C13.4983 23.7476 14.3158 23.7488 15.5033 23.7488C16.6908 23.7488 17.5033 23.7488 18.1533 23.7038C18.7871 23.6601 19.1558 23.5788 19.4408 23.4626C19.8953 23.2753 20.3082 23 20.6557 22.6524C21.0032 22.3049 21.2786 21.892 21.4658 21.4376C21.5833 21.1563 21.6633 20.7863 21.7071 20.1501C21.7521 19.5051 21.7521 18.6751 21.7521 17.5001ZM8.37707 8.08757C7.99707 9.00632 7.99707 10.1751 7.99707 12.5001V17.5001C7.99707 19.8251 7.99707 21.0001 8.37707 21.9126C8.88457 23.1376 9.85207 24.1126 11.0771 24.6126C11.9958 24.9926 13.1646 24.9926 15.4896 24.9926C17.8146 24.9926 18.9896 24.9926 19.9021 24.6126C20.5081 24.3631 21.0587 23.9961 21.5222 23.5326C21.9856 23.0692 22.3526 22.5186 22.6021 21.9126C22.9821 20.9938 22.9821 19.8251 22.9821 17.5001V12.5001C22.9821 10.1751 22.9821 9.00007 22.6021 8.08757C22.3526 7.48153 21.9856 6.93091 21.5222 6.46749C21.0587 6.00407 20.5081 5.63703 19.9021 5.38757C18.9833 5.00757 17.8146 5.00757 15.4896 5.00757C13.1646 5.00757 11.9896 5.00757 11.0771 5.38757C10.471 5.63703 9.92041 6.00407 9.45699 6.46749C8.99357 6.93091 8.62653 7.48153 8.37707 8.08757Z" fill="white"/>
<path d="M14.2393 8.75C14.2393 8.41848 14.371 8.10054 14.6054 7.86612C14.8398 7.6317 15.1577 7.5 15.4893 7.5C15.8208 7.5 16.1387 7.6317 16.3731 7.86612C16.6076 8.10054 16.7393 8.41848 16.7393 8.75V13.75C16.7393 14.0815 16.6076 14.3995 16.3731 14.6339C16.1387 14.8683 15.8208 15 15.4893 15C15.1577 15 14.8398 14.8683 14.6054 14.6339C14.371 14.3995 14.2393 14.0815 14.2393 13.75V8.75Z" fill="white"/>
<mask id="mask0_2692_34177" style="mask-type:alpha" maskUnits="userSpaceOnUse" x="7" y="5" width="16" height="20">
<path d="M15.4893 5.50757C16.6586 5.50757 17.5127 5.50739 18.1895 5.55347C18.8617 5.59925 19.3227 5.68882 19.7109 5.84937L19.7119 5.85034C20.2568 6.07467 20.7523 6.40439 21.1689 6.82104C21.5856 7.23774 21.9154 7.73318 22.1396 8.27808L22.1406 8.28003C22.3006 8.66423 22.3897 9.12446 22.4355 9.79761C22.4816 10.4751 22.4824 11.3306 22.4824 12.4998V17.4998C22.4824 18.6691 22.4816 19.5232 22.4355 20.2C22.3898 20.8722 22.3002 21.3332 22.1396 21.7214V21.7224C21.9153 22.2673 21.5856 22.7628 21.1689 23.1794C20.7523 23.5961 20.2568 23.9258 19.7119 24.1501L19.71 24.1511C19.3256 24.3112 18.865 24.4002 18.1914 24.446C17.5139 24.4921 16.6585 24.4929 15.4893 24.4929C14.3202 24.4929 13.4667 24.4921 12.79 24.446C12.1178 24.4003 11.6568 24.3107 11.2686 24.1501L11.2656 24.1492C10.1669 23.7006 9.29623 22.8253 8.83887 21.7214V21.7205L8.7793 21.5662C8.65004 21.1965 8.57668 20.7493 8.53809 20.1218C8.49716 19.4563 8.49707 18.6223 8.49707 17.4998V12.4998C8.49707 11.3773 8.49717 10.5452 8.53809 9.88062C8.58217 9.16479 8.67196 8.68277 8.83887 8.27905L8.83984 8.27808C9.06417 7.7331 9.39382 7.23777 9.81055 6.82104C10.2273 6.40432 10.7226 6.07467 11.2676 5.85034L11.2695 5.84937C11.6538 5.68938 12.1139 5.59928 12.7871 5.55347C13.4646 5.50739 14.3201 5.50757 15.4893 5.50757ZM15.5029 5.75171C14.6275 5.75171 13.9331 5.75074 13.3574 5.77026L12.8184 5.79761C12.1587 5.84318 11.731 5.93055 11.377 6.07495L11.374 6.07593C10.3356 6.5072 9.51036 7.33239 9.0791 8.37085V8.37183C8.9699 8.63604 8.89323 8.94423 8.84277 9.36108L8.80078 9.81616C8.75561 10.4821 8.75586 11.3197 8.75586 12.4998V17.4998C8.75586 18.6749 8.75565 19.5126 8.80078 20.1833V20.1843C8.84634 20.8443 8.93368 21.2726 9.07812 21.6267L9.0791 21.6287C9.5096 22.6694 10.3393 23.4976 11.375 23.9236V23.9246C11.6392 24.0337 11.9474 24.1104 12.3643 24.1609L12.8193 24.2029C13.485 24.248 14.3222 24.2488 15.5029 24.2488C16.6829 24.2488 17.5162 24.2493 18.1875 24.2029C18.8475 24.1573 19.2758 24.07 19.6299 23.9255L19.6309 23.9246C20.1463 23.7122 20.6146 23.3998 21.0088 23.0056C21.4023 22.6121 21.7144 22.145 21.9268 21.6306C22.0746 21.2769 22.1607 20.8447 22.2061 20.1853C22.2526 19.5187 22.252 18.6672 22.252 17.4998V12.4998C22.252 11.6187 22.2519 10.9272 22.2324 10.3533L22.2061 9.81519C22.1617 9.15573 22.0741 8.72696 21.9277 8.37183C21.7154 7.85653 21.4029 7.388 21.0088 6.9939C20.6147 6.59987 20.1461 6.28727 19.6309 6.07495H19.6299C19.3663 5.96622 19.0594 5.88996 18.6436 5.8396L18.1875 5.79761C17.5217 5.75245 16.6713 5.75171 15.5029 5.75171Z" fill="black" stroke="black"/>
</mask>
<g mask="url(#mask0_2692_34177)">
<rect x="7.48926" y="10" width="2" height="10" fill="black"/>
</g>
<mask id="mask1_2692_34177" style="mask-type:alpha" maskUnits="userSpaceOnUse" x="7" y="5" width="16" height="20">
<path d="M15.4893 5.50757C16.6586 5.50757 17.5127 5.50739 18.1895 5.55347C18.8617 5.59925 19.3227 5.68882 19.7109 5.84937L19.7119 5.85034C20.2568 6.07467 20.7523 6.40439 21.1689 6.82104C21.5856 7.23774 21.9154 7.73318 22.1396 8.27808L22.1406 8.28003C22.3006 8.66423 22.3897 9.12446 22.4355 9.79761C22.4816 10.4751 22.4824 11.3306 22.4824 12.4998V17.4998C22.4824 18.6691 22.4816 19.5232 22.4355 20.2C22.3898 20.8722 22.3002 21.3332 22.1396 21.7214V21.7224C21.9153 22.2673 21.5856 22.7628 21.1689 23.1794C20.7523 23.5961 20.2568 23.9258 19.7119 24.1501L19.71 24.1511C19.3256 24.3112 18.865 24.4002 18.1914 24.446C17.5139 24.4921 16.6585 24.4929 15.4893 24.4929C14.3202 24.4929 13.4667 24.4921 12.79 24.446C12.1178 24.4003 11.6568 24.3107 11.2686 24.1501L11.2656 24.1492C10.1669 23.7006 9.29623 22.8253 8.83887 21.7214V21.7205L8.7793 21.5662C8.65004 21.1965 8.57668 20.7493 8.53809 20.1218C8.49716 19.4563 8.49707 18.6223 8.49707 17.4998V12.4998C8.49707 11.3773 8.49717 10.5452 8.53809 9.88062C8.58217 9.16479 8.67196 8.68277 8.83887 8.27905L8.83984 8.27808C9.06417 7.7331 9.39382 7.23777 9.81055 6.82104C10.2273 6.40432 10.7226 6.07467 11.2676 5.85034L11.2695 5.84937C11.6538 5.68938 12.1139 5.59928 12.7871 5.55347C13.4646 5.50739 14.3201 5.50757 15.4893 5.50757ZM15.5029 5.75171C14.6275 5.75171 13.9331 5.75074 13.3574 5.77026L12.8184 5.79761C12.1587 5.84318 11.731 5.93055 11.377 6.07495L11.374 6.07593C10.3356 6.5072 9.51036 7.33239 9.0791 8.37085V8.37183C8.9699 8.63604 8.89323 8.94423 8.84277 9.36108L8.80078 9.81616C8.75561 10.4821 8.75586 11.3197 8.75586 12.4998V17.4998C8.75586 18.6749 8.75565 19.5126 8.80078 20.1833V20.1843C8.84634 20.8443 8.93368 21.2726 9.07812 21.6267L9.0791 21.6287C9.5096 22.6694 10.3393 23.4976 11.375 23.9236V23.9246C11.6392 24.0337 11.9474 24.1104 12.3643 24.1609L12.8193 24.2029C13.485 24.248 14.3222 24.2488 15.5029 24.2488C16.6829 24.2488 17.5162 24.2493 18.1875 24.2029C18.8475 24.1573 19.2758 24.07 19.6299 23.9255L19.6309 23.9246C20.1463 23.7122 20.6146 23.3998 21.0088 23.0056C21.4023 22.6121 21.7144 22.145 21.9268 21.6306C22.0746 21.2769 22.1607 20.8447 22.2061 20.1853C22.2526 19.5187 22.252 18.6672 22.252 17.4998V12.4998C22.252 11.6187 22.2519 10.9272 22.2324 10.3533L22.2061 9.81519C22.1617 9.15573 22.0741 8.72696 21.9277 8.37183C21.7154 7.85653 21.4029 7.388 21.0088 6.9939C20.6147 6.59987 20.1461 6.28727 19.6309 6.07495H19.6299C19.3663 5.96622 19.0594 5.88996 18.6436 5.8396L18.1875 5.79761C17.5217 5.75245 16.6713 5.75171 15.5029 5.75171Z" fill="black" stroke="black"/>
</mask>
<g mask="url(#mask1_2692_34177)">
<path d="M7.48926 22H9.48926V20H7.48926V22Z" fill="white"/>
</g>
<mask id="mask2_2692_34177" style="mask-type:alpha" maskUnits="userSpaceOnUse" x="7" y="5" width="16" height="20">
<path d="M15.4893 5.50757C16.6586 5.50757 17.5127 5.50739 18.1895 5.55347C18.8617 5.59925 19.3227 5.68882 19.7109 5.84937L19.7119 5.85034C20.2568 6.07467 20.7523 6.40439 21.1689 6.82104C21.5856 7.23774 21.9154 7.73318 22.1396 8.27808L22.1406 8.28003C22.3006 8.66423 22.3897 9.12446 22.4355 9.79761C22.4816 10.4751 22.4824 11.3306 22.4824 12.4998V17.4998C22.4824 18.6691 22.4816 19.5232 22.4355 20.2C22.3898 20.8722 22.3002 21.3332 22.1396 21.7214V21.7224C21.9153 22.2673 21.5856 22.7628 21.1689 23.1794C20.7523 23.5961 20.2568 23.9258 19.7119 24.1501L19.71 24.1511C19.3256 24.3112 18.865 24.4002 18.1914 24.446C17.5139 24.4921 16.6585 24.4929 15.4893 24.4929C14.3202 24.4929 13.4667 24.4921 12.79 24.446C12.1178 24.4003 11.6568 24.3107 11.2686 24.1501L11.2656 24.1492C10.1669 23.7006 9.29623 22.8253 8.83887 21.7214V21.7205L8.7793 21.5662C8.65004 21.1965 8.57668 20.7493 8.53809 20.1218C8.49716 19.4563 8.49707 18.6223 8.49707 17.4998V12.4998C8.49707 11.3773 8.49717 10.5452 8.53809 9.88062C8.58217 9.16479 8.67196 8.68277 8.83887 8.27905L8.83984 8.27808C9.06417 7.7331 9.39382 7.23777 9.81055 6.82104C10.2273 6.40432 10.7226 6.07467 11.2676 5.85034L11.2695 5.84937C11.6538 5.68938 12.1139 5.59928 12.7871 5.55347C13.4646 5.50739 14.3201 5.50757 15.4893 5.50757ZM15.5029 5.75171C14.6275 5.75171 13.9331 5.75074 13.3574 5.77026L12.8184 5.79761C12.1587 5.84318 11.731 5.93055 11.377 6.07495L11.374 6.07593C10.3356 6.5072 9.51036 7.33239 9.0791 8.37085V8.37183C8.9699 8.63604 8.89323 8.94423 8.84277 9.36108L8.80078 9.81616C8.75561 10.4821 8.75586 11.3197 8.75586 12.4998V17.4998C8.75586 18.6749 8.75565 19.5126 8.80078 20.1833V20.1843C8.84634 20.8443 8.93368 21.2726 9.07812 21.6267L9.0791 21.6287C9.5096 22.6694 10.3393 23.4976 11.375 23.9236V23.9246C11.6392 24.0337 11.9474 24.1104 12.3643 24.1609L12.8193 24.2029C13.485 24.248 14.3222 24.2488 15.5029 24.2488C16.6829 24.2488 17.5162 24.2493 18.1875 24.2029C18.8475 24.1573 19.2758 24.07 19.6299 23.9255L19.6309 23.9246C20.1463 23.7122 20.6146 23.3998 21.0088 23.0056C21.4023 22.6121 21.7144 22.145 21.9268 21.6306C22.0746 21.2769 22.1607 20.8447 22.2061 20.1853C22.2526 19.5187 22.252 18.6672 22.252 17.4998V12.4998C22.252 11.6187 22.2519 10.9272 22.2324 10.3533L22.2061 9.81519C22.1617 9.15573 22.0741 8.72696 21.9277 8.37183C21.7154 7.85653 21.4029 7.388 21.0088 6.9939C20.6147 6.59987 20.1461 6.28727 19.6309 6.07495H19.6299C19.3663 5.96622 19.0594 5.88996 18.6436 5.8396L18.1875 5.79761C17.5217 5.75245 16.6713 5.75171 15.5029 5.75171Z" fill="black" stroke="black"/>
</mask>
<g mask="url(#mask2_2692_34177)">
<path d="M7.48926 19H9.48926V15H7.48926V19Z" fill="white"/>
</g>
<mask id="mask3_2692_34177" style="mask-type:alpha" maskUnits="userSpaceOnUse" x="7" y="5" width="16" height="20">
<path d="M15.4893 5.50757C16.6586 5.50757 17.5127 5.50739 18.1895 5.55347C18.8617 5.59925 19.3227 5.68882 19.7109 5.84937L19.7119 5.85034C20.2568 6.07467 20.7523 6.40439 21.1689 6.82104C21.5856 7.23774 21.9154 7.73318 22.1396 8.27808L22.1406 8.28003C22.3006 8.66423 22.3897 9.12446 22.4355 9.79761C22.4816 10.4751 22.4824 11.3306 22.4824 12.4998V17.4998C22.4824 18.6691 22.4816 19.5232 22.4355 20.2C22.3898 20.8722 22.3002 21.3332 22.1396 21.7214V21.7224C21.9153 22.2673 21.5856 22.7628 21.1689 23.1794C20.7523 23.5961 20.2568 23.9258 19.7119 24.1501L19.71 24.1511C19.3256 24.3112 18.865 24.4002 18.1914 24.446C17.5139 24.4921 16.6585 24.4929 15.4893 24.4929C14.3202 24.4929 13.4667 24.4921 12.79 24.446C12.1178 24.4003 11.6568 24.3107 11.2686 24.1501L11.2656 24.1492C10.1669 23.7006 9.29623 22.8253 8.83887 21.7214V21.7205L8.7793 21.5662C8.65004 21.1965 8.57668 20.7493 8.53809 20.1218C8.49716 19.4563 8.49707 18.6223 8.49707 17.4998V12.4998C8.49707 11.3773 8.49717 10.5452 8.53809 9.88062C8.58217 9.16479 8.67196 8.68277 8.83887 8.27905L8.83984 8.27808C9.06417 7.7331 9.39382 7.23777 9.81055 6.82104C10.2273 6.40432 10.7226 6.07467 11.2676 5.85034L11.2695 5.84937C11.6538 5.68938 12.1139 5.59928 12.7871 5.55347C13.4646 5.50739 14.3201 5.50757 15.4893 5.50757ZM15.5029 5.75171C14.6275 5.75171 13.9331 5.75074 13.3574 5.77026L12.8184 5.79761C12.1587 5.84318 11.731 5.93055 11.377 6.07495L11.374 6.07593C10.3356 6.5072 9.51036 7.33239 9.0791 8.37085V8.37183C8.9699 8.63604 8.89323 8.94423 8.84277 9.36108L8.80078 9.81616C8.75561 10.4821 8.75586 11.3197 8.75586 12.4998V17.4998C8.75586 18.6749 8.75565 19.5126 8.80078 20.1833V20.1843C8.84634 20.8443 8.93368 21.2726 9.07812 21.6267L9.0791 21.6287C9.5096 22.6694 10.3393 23.4976 11.375 23.9236V23.9246C11.6392 24.0337 11.9474 24.1104 12.3643 24.1609L12.8193 24.2029C13.485 24.248 14.3222 24.2488 15.5029 24.2488C16.6829 24.2488 17.5162 24.2493 18.1875 24.2029C18.8475 24.1573 19.2758 24.07 19.6299 23.9255L19.6309 23.9246C20.1463 23.7122 20.6146 23.3998 21.0088 23.0056C21.4023 22.6121 21.7144 22.145 21.9268 21.6306C22.0746 21.2769 22.1607 20.8447 22.2061 20.1853C22.2526 19.5187 22.252 18.6672 22.252 17.4998V12.4998C22.252 11.6187 22.2519 10.9272 22.2324 10.3533L22.2061 9.81519C22.1617 9.15573 22.0741 8.72696 21.9277 8.37183C21.7154 7.85653 21.4029 7.388 21.0088 6.9939C20.6147 6.59987 20.1461 6.28727 19.6309 6.07495H19.6299C19.3663 5.96622 19.0594 5.88996 18.6436 5.8396L18.1875 5.79761C17.5217 5.75245 16.6713 5.75171 15.5029 5.75171Z" fill="black" stroke="black"/>
</mask>
<g mask="url(#mask3_2692_34177)">
<path d="M7.48926 9H9.48926V14H7.48926V9Z" fill="white"/>
</g>
</svg>
