<svg width="24" height="25" viewBox="0 0 24 25" fill="none" xmlns="http://www.w3.org/2000/svg">
<g clip-path="url(#clip0_2697_34634)">
<path d="M12 4.14258C12.1326 4.14258 12.2598 4.19526 12.3536 4.28902C12.4473 4.38279 12.5 4.50997 12.5 4.64258V6.64258C12.5 6.77519 12.4473 6.90236 12.3536 6.99613C12.2598 7.0899 12.1326 7.14258 12 7.14258C11.8674 7.14258 11.7402 7.0899 11.6464 6.99613C11.5527 6.90236 11.5 6.77519 11.5 6.64258V4.64258C11.5 4.50997 11.5527 4.38279 11.6464 4.28902C11.7402 4.19526 11.8674 4.14258 12 4.14258ZM12 17.1426C12.1326 17.1426 12.2598 17.1953 12.3536 17.289C12.4473 17.3828 12.5 17.51 12.5 17.6426V19.6426C12.5 19.7752 12.4473 19.9024 12.3536 19.9961C12.2598 20.0899 12.1326 20.1426 12 20.1426C11.8674 20.1426 11.7402 20.0899 11.6464 19.9961C11.5527 19.9024 11.5 19.7752 11.5 19.6426V17.6426C11.5 17.51 11.5527 17.3828 11.6464 17.289C11.7402 17.1953 11.8674 17.1426 12 17.1426ZM20 12.1426C20 12.2752 19.9473 12.4024 19.8536 12.4961C19.7598 12.5899 19.6326 12.6426 19.5 12.6426H17.5C17.3674 12.6426 17.2402 12.5899 17.1464 12.4961C17.0527 12.4024 17 12.2752 17 12.1426C17 12.01 17.0527 11.8828 17.1464 11.789C17.2402 11.6953 17.3674 11.6426 17.5 11.6426H19.5C19.6326 11.6426 19.7598 11.6953 19.8536 11.789C19.9473 11.8828 20 12.01 20 12.1426ZM7 12.1426C7 12.2752 6.94732 12.4024 6.85355 12.4961C6.75979 12.5899 6.63261 12.6426 6.5 12.6426H4.5C4.36739 12.6426 4.24021 12.5899 4.14645 12.4961C4.05268 12.4024 4 12.2752 4 12.1426C4 12.01 4.05268 11.8828 4.14645 11.789C4.24021 11.6953 4.36739 11.6426 4.5 11.6426H6.5C6.63261 11.6426 6.75979 11.6953 6.85355 11.789C6.94732 11.8828 7 12.01 7 12.1426ZM17.657 6.48558C17.7507 6.57934 17.8034 6.7065 17.8034 6.83908C17.8034 6.97166 17.7507 7.09881 17.657 7.19258L16.243 8.60758C16.1965 8.654 16.1413 8.69081 16.0806 8.71591C16.0199 8.74101 15.9548 8.7539 15.8891 8.75386C15.7565 8.75376 15.6293 8.70096 15.5355 8.60708C15.4891 8.56059 15.4523 8.50541 15.4272 8.4447C15.4021 8.38399 15.3892 8.31892 15.3892 8.25322C15.3893 8.12054 15.4421 7.99333 15.536 7.89958L16.95 6.48558C17.0438 6.39184 17.1709 6.33918 17.3035 6.33918C17.4361 6.33918 17.5632 6.39184 17.657 6.48558ZM8.464 15.6786C8.55774 15.7723 8.61039 15.8995 8.61039 16.0321C8.61039 16.1647 8.55774 16.2918 8.464 16.3856L7.05 17.7996C6.9557 17.8907 6.8294 17.9411 6.6983 17.9399C6.5672 17.9388 6.44179 17.8862 6.34909 17.7935C6.25639 17.7008 6.2038 17.5754 6.20266 17.4443C6.20152 17.3132 6.25192 17.1869 6.343 17.0926L7.757 15.6786C7.85076 15.5848 7.97792 15.5322 8.1105 15.5322C8.24308 15.5322 8.37024 15.5848 8.464 15.6786ZM17.657 17.7996C17.5632 17.8933 17.4361 17.946 17.3035 17.946C17.1709 17.946 17.0438 17.8933 16.95 17.7996L15.536 16.3856C15.4449 16.2913 15.3945 16.165 15.3957 16.0339C15.3968 15.9028 15.4494 15.7774 15.5421 15.6847C15.6348 15.592 15.7602 15.5394 15.8913 15.5382C16.0224 15.5371 16.1487 15.5875 16.243 15.6786L17.657 17.0926C17.7507 17.1863 17.8034 17.3135 17.8034 17.4461C17.8034 17.5787 17.7507 17.7058 17.657 17.7996ZM8.464 8.60758C8.37024 8.70131 8.24308 8.75397 8.1105 8.75397C7.97792 8.75397 7.85076 8.70131 7.757 8.60758L6.343 7.19258C6.29524 7.14645 6.25715 7.09128 6.23095 7.03028C6.20474 6.96928 6.19095 6.90367 6.19037 6.83728C6.1898 6.77089 6.20245 6.70505 6.22759 6.6436C6.25273 6.58215 6.28986 6.52633 6.3368 6.47938C6.38375 6.43243 6.43957 6.39531 6.50102 6.37017C6.56247 6.34503 6.62831 6.33238 6.6947 6.33295C6.76109 6.33353 6.8267 6.34732 6.8877 6.37353C6.9487 6.39973 7.00388 6.43782 7.05 6.48558L8.464 7.89958C8.51056 7.94602 8.54751 8.0012 8.57271 8.06194C8.59792 8.12269 8.61089 8.18781 8.61089 8.25358C8.61089 8.31935 8.59792 8.38447 8.57271 8.44521C8.54751 8.50596 8.51056 8.56113 8.464 8.60758Z" fill="white"/>
<path d="M10.5508 12.4619L9.86914 14.2031H10.7393L11.1113 13.2012H11.29L13.9062 15.8174C13.3756 16.0296 12.7423 16.1416 12 16.1416C10.4859 16.1416 9.42116 15.6824 8.7666 14.8389C8.14121 14.0346 8.00003 13.0177 8 12.1436C8 11.5344 8.06814 10.8573 8.32031 10.2305L10.5508 12.4619ZM15.4453 14.5283C15.3817 14.6345 15.3114 14.7386 15.2334 14.8389C15.0013 15.1368 14.7169 15.385 14.3809 15.584L11.9971 13.2012H12.8213L13.2051 14.2031H14.1289L13.4551 12.5381L15.4453 14.5283ZM12 8.14355C13.5126 8.14355 14.5788 8.60424 15.2334 9.44629C15.8589 10.2521 16 11.2679 16 12.1436C16 12.7516 15.9308 13.4282 15.6787 14.0547L12.9756 11.3516L12.3535 9.81152H11.5908L11.5469 9.92188L10.0918 8.46777C10.6231 8.25503 11.2575 8.14355 12 8.14355ZM12.0234 11.1064L12.5391 12.457H11.3809L11.9189 11.001L12.0234 11.1064ZM11.3477 10.4297L10.75 11.9541L8.55371 9.75684C8.61733 9.65047 8.68858 9.54681 8.7666 9.44629C8.9986 9.1485 9.28221 8.89914 9.61816 8.7002L11.3477 10.4297Z" fill="white"/>
<path d="M6.34282 6.48567C6.64159 6.1869 7.12599 6.1869 7.42476 6.48567L17.6565 16.7174C17.9553 17.0162 17.9553 17.5006 17.6565 17.7994C17.3578 18.0981 16.8734 18.0981 16.5746 17.7994L6.34282 7.56761C6.04405 7.26884 6.04405 6.78444 6.34282 6.48567Z" fill="white"/>
</g>
<defs>
<clipPath id="clip0_2697_34634">
<rect width="16" height="16" fill="white" transform="translate(4 4.14258)"/>
</clipPath>
</defs>
</svg>
