<svg width="24" height="25" viewBox="0 0 24 25" fill="none" xmlns="http://www.w3.org/2000/svg">
<g clip-path="url(#clip0_2692_34549)">
<path d="M14 6.43258V8.55658C14.566 8.80358 15.086 9.15658 15.536 9.60658C16.48 10.5506 17 11.8066 17 13.1426C17 14.4786 16.48 15.7336 15.536 16.6786C14.592 17.6236 13.336 18.1426 12 18.1426C10.664 18.1426 9.40902 17.6226 8.46402 16.6786C7.51902 15.7346 7.00002 14.4786 7.00002 13.1426C7.00002 11.8066 7.52002 10.5516 8.46402 9.60658C8.91402 9.15658 9.43402 8.80358 10 8.55658V6.43258C8.38869 6.91298 7.00412 7.95733 6.09948 9.37465C5.19485 10.792 4.8306 12.4876 5.07335 14.1514C5.3161 15.8152 6.14961 17.336 7.42149 18.4358C8.69336 19.5356 10.3186 20.1408 12 20.1408C13.6814 20.1408 15.3067 19.5356 16.5785 18.4358C17.8504 17.336 18.6839 15.8152 18.9267 14.1514C19.1694 12.4876 18.8052 10.792 17.9005 9.37465C16.9959 7.95733 15.6113 6.91298 14 6.43258ZM11 4.14258H13V12.1426H11V4.14258Z" fill="white"/>
</g>
<defs>
<clipPath id="clip0_2692_34549">
<rect width="16" height="16" fill="white" transform="translate(4 4.14258)"/>
</clipPath>
</defs>
</svg>
