<svg width="24" height="25" viewBox="0 0 24 25" fill="none" xmlns="http://www.w3.org/2000/svg">
<path d="M15 14.8926H13.6986L13.1577 13.5237H10.7493L10.2254 14.8926H9L11.4254 8.89258H12.4986L15 14.8926ZM11.9324 10.4008L11.1296 12.5073H12.7606L11.9324 10.4008Z" fill="white"/>
<path d="M19 10.1426V9.14258C19 7.48572 17.6569 6.14258 16 6.14258H8.28571C6.62886 6.14258 5.28571 7.48572 5.28571 9.14258V11.1426L3 9.14258" stroke="white" stroke-width="1.5" stroke-linecap="round"/>
<path d="M5 15.1426C5 16.7994 6.34315 18.1426 8 18.1426H15.7143C17.3711 18.1426 18.7143 16.7994 18.7143 15.1426V14.1426C18.7143 14.1426 20.1074 15.3615 21 16.1426" stroke="white" stroke-width="1.5" stroke-linecap="round"/>
</svg>
