<svg width="24" height="25" viewBox="0 0 24 25" fill="none" xmlns="http://www.w3.org/2000/svg">
<path d="M11.7123 12.9959L17.615 16.9312C17.6632 16.9633 17.7192 16.9817 17.777 16.9844C17.8348 16.9872 17.8923 16.9742 17.9433 16.9469C17.9944 16.9196 18.037 16.8789 18.0668 16.8293C18.0965 16.7796 18.1123 16.7229 18.1123 16.665V7.62049C18.1123 7.56261 18.0965 7.50582 18.0668 7.45617C18.037 7.40652 17.9944 7.36587 17.9433 7.33855C17.8923 7.31123 17.8348 7.29826 17.777 7.30102C17.7192 7.30379 17.6632 7.32219 17.615 7.35425L11.7123 11.2896V7.62049C11.7123 7.56261 11.6965 7.50582 11.6668 7.45617C11.637 7.40652 11.5944 7.36587 11.5433 7.33855C11.4923 7.31123 11.4348 7.29826 11.377 7.30102C11.3192 7.30379 11.2632 7.32219 11.215 7.35425L4.43167 11.8765C4.38784 11.9057 4.35191 11.9453 4.32705 11.9918C4.3022 12.0382 4.2892 12.0901 4.2892 12.1427C4.2892 12.1954 4.3022 12.2473 4.32705 12.2937C4.35191 12.3402 4.38784 12.3798 4.43167 12.409L11.215 16.9312C11.2632 16.9633 11.3192 16.9817 11.377 16.9844C11.4348 16.9872 11.4923 16.9742 11.5433 16.9469C11.5944 16.9196 11.637 16.8789 11.6668 16.8293C11.6965 16.7796 11.7123 16.7229 11.7123 16.665V12.9959Z" fill="white"/>
</svg>
