<svg width="24" height="25" viewBox="0 0 24 25" fill="none" xmlns="http://www.w3.org/2000/svg">
<path d="M19.4294 8.6747C19.5037 8.67268 19.5772 8.69036 19.6424 8.72595C19.7077 8.76154 19.7623 8.81376 19.8008 8.87732C20.1982 9.72717 20.4109 10.6524 20.4244 11.5901C20.4244 15.3092 17.0476 19.4819 12.5079 19.5674C17.0464 19.4819 20.4256 15.3092 20.4256 11.5912C20.4116 10.6522 20.1987 9.72685 19.8008 8.87619C19.7622 8.81272 19.7076 8.76056 19.6423 8.72498C19.5771 8.6894 19.5037 8.67167 19.4294 8.67358V8.6747ZM7.65304 15.4037C7.50671 15.406 7.36488 15.4836 7.12399 15.6266C7.36488 15.4836 7.50671 15.4071 7.65304 15.4037ZM12.6553 5.3721L12.8647 5.36985C12.7949 5.36985 12.7251 5.36985 12.6553 5.3721ZM7.60351 14.5708C7.8579 14.564 8.11004 14.6225 8.33517 14.7407C9.00717 15.1077 9.07471 16.0363 9.12536 16.7961C9.13099 17.0516 9.16476 17.3049 9.22667 17.5526C9.16515 17.3049 9.13118 17.0512 9.12536 16.7961C9.07471 16.0363 9.00717 15.1077 8.3363 14.7407C8.11071 14.6232 7.85891 14.5651 7.60464 14.5719L7.60351 14.5708ZM10.6315 18.2212C10.1013 18.0625 9.72307 17.8081 9.54635 17.44L18.7799 8.7186C18.7163 8.82726 18.6809 8.95011 18.677 9.07594C18.6731 9.20177 18.7007 9.32659 18.7574 9.43901C19.0804 10.1256 19.2594 10.8686 19.2808 11.6261C19.2786 14.8342 16.3271 18.417 12.3964 18.417H12.3908C11.81 18.4283 11.1706 18.3833 10.6315 18.2212ZM18.781 8.71748L9.54635 17.4411C9.4957 17.227 9.46778 17.0082 9.46305 16.7882V16.7736C9.43716 16.401 9.40677 15.9418 9.28745 15.5287C9.16814 15.1111 8.94414 14.6889 8.49839 14.4447L8.49276 14.4413C8.17858 14.2771 7.82358 14.2074 7.47062 14.2405C7.11767 14.2737 6.78187 14.4083 6.50377 14.6282C6.2355 14.8048 5.92768 14.9123 5.60777 14.9411H5.59651L5.58526 14.9433C5.48973 14.9588 5.39198 14.9535 5.29872 14.9276C5.20545 14.9018 5.11889 14.8561 5.04495 14.7936C4.96954 14.7205 4.89524 14.591 4.84572 14.3693C4.79086 14.0751 4.77346 13.7752 4.79394 13.4766V13.462C4.79394 11.4516 5.83515 9.72942 7.37839 8.50023C8.925 7.26879 10.9534 6.55289 12.8647 6.55289L12.8737 6.55176C14.255 6.51546 15.6223 6.83567 16.8438 7.48153C16.9308 7.53054 17.0266 7.56192 17.1257 7.57391C17.2248 7.58589 17.3254 7.57823 17.4215 7.55137C17.5177 7.5245 17.6076 7.47896 17.6862 7.41735C17.7647 7.35573 17.8304 7.27924 17.8794 7.19225C17.9284 7.10526 17.9598 7.00946 17.9718 6.91034C17.9837 6.81122 17.9761 6.71071 17.9492 6.61454C17.9224 6.51838 17.8768 6.42845 17.8152 6.34989C17.7536 6.27133 17.6771 6.20567 17.5901 6.15667L17.5834 6.15329C16.1568 5.38693 14.5569 5.00082 12.9379 5.03216H12.8636C10.497 5.04993 8.20473 5.8604 6.35294 7.33408C4.53842 8.7974 3.28109 10.9001 3.27771 13.4226C3.21806 14.4717 3.41842 15.3294 3.96773 15.8787L3.97448 15.8855C4.20586 16.1035 4.4825 16.2678 4.78467 16.3666C5.08683 16.4655 5.40708 16.4964 5.72258 16.4573C6.28652 16.4123 6.8302 16.2254 7.30184 15.9136C7.50783 15.7921 7.58325 15.756 7.63728 15.7448C7.65642 15.7414 7.68906 15.7347 7.8095 15.7909C7.814 15.7977 7.82076 15.8101 7.83089 15.8326C7.8534 15.8922 7.87254 15.9812 7.88492 16.1016C7.89843 16.2198 7.90293 16.3493 7.90743 16.4832V16.517C7.91193 16.6295 7.91531 16.75 7.92544 16.8558C7.92844 17.2402 7.9911 17.6218 8.11117 17.987L8.1168 18.0039L8.12355 18.0208C8.72014 19.3401 10.1868 19.9074 12.231 19.9074H12.3661C14.7783 19.9074 16.8776 18.8031 18.369 17.2216C19.8571 15.6435 20.7621 13.5689 20.7621 11.5923V11.5856C20.7472 10.599 20.5232 9.62683 20.1048 8.73324L20.0969 8.71635L20.0879 8.70059C20.0194 8.58749 19.9226 8.49422 19.807 8.43C19.6914 8.36579 19.561 8.33284 19.4288 8.33444C19.2966 8.33603 19.1671 8.3721 19.0531 8.43908C18.9391 8.50606 18.8445 8.60163 18.7788 8.71635L18.781 8.71748ZM18.7799 8.71748L19.0951 8.42031H19.0939L18.7799 8.71748Z" fill="white"/>
<path d="M7.12526 10.8967C7.01883 10.8958 6.91328 10.916 6.81464 10.956C6.716 10.996 6.6262 11.055 6.55037 11.1297C6.47454 11.2043 6.41416 11.2932 6.37268 11.3912C6.3312 11.4893 6.30943 11.5945 6.30862 11.7009C6.3078 11.8073 6.32796 11.9129 6.36794 12.0115C6.40792 12.1102 6.46693 12.2 6.54162 12.2758C6.69244 12.429 6.89793 12.5159 7.11288 12.5176C7.32783 12.5192 7.53462 12.4354 7.68777 12.2846C7.84092 12.1337 7.92788 11.9282 7.92953 11.7133C7.93117 11.4984 7.84736 11.2916 7.69653 11.1384C7.5457 10.9853 7.34021 10.8983 7.12526 10.8967ZM9.27522 8.85363C9.141 8.85378 9.00812 8.88036 8.88417 8.93186C8.76023 8.98336 8.64764 9.05877 8.55283 9.15379C8.45803 9.2488 8.38287 9.36155 8.33164 9.48561C8.28041 9.60967 8.25412 9.74261 8.25427 9.87683C8.25442 10.0111 8.281 10.1439 8.3325 10.2679C8.384 10.3918 8.45941 10.5044 8.55442 10.5992C8.64944 10.694 8.76219 10.7692 8.88625 10.8204C9.01031 10.8716 9.14325 10.8979 9.27747 10.8978C9.54854 10.8973 9.80833 10.7892 9.99969 10.5972C10.191 10.4052 10.2983 10.1451 10.2979 9.87402C10.2974 9.60295 10.1893 9.34315 9.9973 9.1518C9.80531 8.96044 9.54516 8.85318 9.27409 8.85363H9.27522ZM13.6393 8.20865C13.4681 7.91324 13.1865 7.69795 12.8566 7.61014C12.5266 7.52232 12.1753 7.56917 11.8799 7.74038C11.5845 7.91159 11.3692 8.19314 11.2814 8.52308C11.1936 8.85303 11.2405 9.20434 11.4117 9.49974C11.5829 9.79529 11.8645 10.0107 12.1945 10.0986C12.5246 10.1866 12.876 10.1398 13.1716 9.96857C13.4671 9.79736 13.6826 9.51575 13.7705 9.1857C13.8584 8.85565 13.8116 8.5042 13.6404 8.20865H13.6393ZM20.7544 5.21447C19.3406 6.25343 15.4448 9.54589 13.8115 11.9683C13.368 12.6155 13.9916 13.3325 14.6557 12.898C16.862 11.4246 19.9777 6.98846 20.9446 5.38894C20.956 5.37645 20.9648 5.36184 20.9706 5.34594C20.9763 5.33005 20.9788 5.31318 20.9781 5.2963C20.9773 5.27942 20.9732 5.26286 20.966 5.24756C20.9588 5.23226 20.9487 5.21853 20.9362 5.20715C20.9237 5.19577 20.9091 5.18696 20.8932 5.18122C20.8773 5.17549 20.8604 5.17294 20.8435 5.17372C20.8267 5.17451 20.8101 5.17861 20.7948 5.18579C20.7795 5.19298 20.7658 5.2031 20.7544 5.21559V5.21447Z" fill="white"/>
<path d="M13.2846 15.0345C14.086 14.4525 14.4744 13.4057 13.4309 12.7607C13.0313 12.5108 12.1657 12.4478 11.5792 13.6668C11.247 14.4463 10.8046 15.1742 10.2656 15.828C11.3312 15.896 12.3902 15.6176 13.2846 15.0345Z" fill="white"/>
</svg>
