<svg width="24" height="25" viewBox="0 0 24 25" fill="none" xmlns="http://www.w3.org/2000/svg">
<path d="M12 4.14258C12.2449 4.14261 12.4813 4.23253 12.6644 4.39529C12.8474 4.55805 12.9643 4.78233 12.993 5.02558L13 5.15258C12.9997 5.40746 12.9021 5.65261 12.7272 5.83795C12.5522 6.02328 12.313 6.13481 12.0586 6.14975C11.8042 6.16469 11.5536 6.0819 11.3582 5.91831C11.1627 5.75472 11.0371 5.52267 11.007 5.26958L11 5.14258C11 4.87736 11.1054 4.62301 11.2929 4.43547C11.4804 4.24794 11.7348 4.14258 12 4.14258ZM17 6.14258C17.2449 6.14261 17.4813 6.23253 17.6644 6.39529C17.8474 6.55805 17.9643 6.78233 17.993 7.02558L18 7.15258C17.9997 7.40746 17.9021 7.65261 17.7272 7.83795C17.5522 8.02328 17.313 8.13481 17.0586 8.14975C16.8042 8.16469 16.5536 8.0819 16.3582 7.91831C16.1627 7.75472 16.0371 7.52267 16.007 7.26958L16 7.14258C16 6.87736 16.1054 6.62301 16.2929 6.43547C16.4804 6.24794 16.7348 6.14258 17 6.14258ZM19 11.1426C19.2449 11.1426 19.4813 11.2325 19.6644 11.3953C19.8474 11.5581 19.9643 11.7823 19.993 12.0256L20 12.1526C19.9997 12.4075 19.9021 12.6526 19.7272 12.8379C19.5522 13.0233 19.313 13.1348 19.0586 13.1497C18.8042 13.1647 18.5536 13.0819 18.3582 12.9183C18.1627 12.7547 18.0371 12.5227 18.007 12.2696L18 12.1426C18 11.8774 18.1054 11.623 18.2929 11.4355C18.4804 11.2479 18.7348 11.1426 19 11.1426ZM17 16.1426C17.2449 16.1426 17.4813 16.2325 17.6644 16.3953C17.8474 16.5581 17.9643 16.7823 17.993 17.0256L18 17.1526C17.9997 17.4075 17.9021 17.6526 17.7272 17.8379C17.5522 18.0233 17.313 18.1348 17.0586 18.1497C16.8042 18.1647 16.5536 18.0819 16.3582 17.9183C16.1627 17.7547 16.0371 17.5227 16.007 17.2696L16 17.1426C16 16.8774 16.1054 16.623 16.2929 16.4355C16.4804 16.2479 16.7348 16.1426 17 16.1426ZM12 18.1426C12.2449 18.1426 12.4813 18.2325 12.6644 18.3953C12.8474 18.5581 12.9643 18.7823 12.993 19.0256L13 19.1526C12.9997 19.4075 12.9021 19.6526 12.7272 19.8379C12.5522 20.0233 12.313 20.1348 12.0586 20.1497C11.8042 20.1647 11.5536 20.0819 11.3582 19.9183C11.1627 19.7547 11.0371 19.5227 11.007 19.2696L11 19.1426C11 18.8774 11.1054 18.623 11.2929 18.4355C11.4804 18.2479 11.7348 18.1426 12 18.1426ZM7 16.1426C7.24493 16.1426 7.48134 16.2325 7.66437 16.3953C7.84741 16.5581 7.96434 16.7823 7.993 17.0256L8 17.1526C7.99972 17.4075 7.90212 17.6526 7.72715 17.8379C7.55218 18.0233 7.31305 18.1348 7.05861 18.1497C6.80416 18.1647 6.55362 18.0819 6.35817 17.9183C6.16271 17.7547 6.0371 17.5227 6.007 17.2696L6 17.1426C6 16.8774 6.10536 16.623 6.29289 16.4355C6.48043 16.2479 6.73478 16.1426 7 16.1426ZM5 11.1426C5.24493 11.1426 5.48134 11.2325 5.66437 11.3953C5.84741 11.5581 5.96434 11.7823 5.993 12.0256L6 12.1526C5.99972 12.4075 5.90212 12.6526 5.72715 12.8379C5.55218 13.0233 5.31305 13.1348 5.05861 13.1497C4.80416 13.1647 4.55362 13.0819 4.35817 12.9183C4.16271 12.7547 4.0371 12.5227 4.007 12.2696L4 12.1426C4 11.8774 4.10536 11.623 4.29289 11.4355C4.48043 11.2479 4.73478 11.1426 5 11.1426ZM7 6.14258C7.24493 6.14261 7.48134 6.23253 7.66437 6.39529C7.84741 6.55805 7.96434 6.78233 7.993 7.02558L8 7.15258C7.99972 7.40746 7.90212 7.65261 7.72715 7.83795C7.55218 8.02328 7.31305 8.13481 7.05861 8.14975C6.80416 8.16469 6.55362 8.0819 6.35817 7.91831C6.16271 7.75472 6.0371 7.52267 6.007 7.26958L6 7.14258C6 6.87736 6.10536 6.62301 6.29289 6.43547C6.48043 6.24794 6.73478 6.14258 7 6.14258Z" fill="white"/>
<path fill-rule="evenodd" clip-rule="evenodd" d="M12 8.14331C10.4873 8.14331 9.42255 8.6044 8.76655 9.44658C8.14109 10.2524 8 11.2677 8 12.1433C8 13.0175 8.14109 14.0342 8.76655 14.8386C9.42109 15.6822 10.4858 16.1419 12 16.1419C13.5142 16.1419 14.5775 15.6808 15.2335 14.8386C15.8589 14.0342 16 13.0175 16 12.1433C16 11.2677 15.8589 10.2524 15.2335 9.44658C14.5789 8.6044 13.5127 8.14331 12 8.14331Z" fill="white"/>
<path d="M14.1291 14.203H13.2051L12.8211 13.201H11.1111L10.7391 14.203H9.86914L11.5911 9.81104H12.3531L14.1291 14.203ZM11.9511 10.915L11.3811 12.457H12.5391L11.9511 10.915Z" fill="#383838"/>
</svg>
