<svg width="24" height="24" viewBox="0 0 24 24" fill="none" xmlns="http://www.w3.org/2000/svg">
<path d="M14.0833 6.52393C14.0833 5.37333 13.1506 4.44059 12 4.44059C10.8494 4.44059 9.91667 5.37333 9.91667 6.52393V11.9406C9.91667 13.0912 10.8494 14.0239 12 14.0239C13.1506 14.0239 14.0833 13.0912 14.0833 11.9406V6.52393ZM15.75 11.9406C15.75 14.0117 14.0711 15.6906 12 15.6906C9.92893 15.6906 8.25 14.0117 8.25 11.9406V6.52393C8.25 4.45286 9.92893 2.77393 12 2.77393C14.0711 2.77393 15.75 4.45286 15.75 6.52393V11.9406Z" fill="white"/>
<path d="M4.91675 11.9237C4.91675 11.4634 5.28984 11.0903 5.75008 11.0903C6.21032 11.0903 6.58341 11.4634 6.58341 11.9237C6.58341 14.9152 9.00853 17.3403 12.0001 17.3403C14.9916 17.3403 17.4167 14.9152 17.4167 11.9237C17.4167 11.4634 17.7898 11.0903 18.2501 11.0903C18.7103 11.0903 19.0834 11.4634 19.0834 11.9237C19.0834 15.8357 15.9121 19.007 12.0001 19.007C8.08805 19.007 4.91675 15.8357 4.91675 11.9237Z" fill="white"/>
<path d="M11.1667 20.6737V18.1737C11.1667 17.7134 11.5398 17.3403 12.0001 17.3403C12.4603 17.3403 12.8334 17.7134 12.8334 18.1737V20.6737C12.8334 21.1339 12.4603 21.507 12.0001 21.507C11.5398 21.507 11.1667 21.1339 11.1667 20.6737Z" fill="white"/>
</svg>
