<svg width="25" height="24" viewBox="0 0 25 24" fill="none" xmlns="http://www.w3.org/2000/svg">
<path d="M7.625 20.7568H17.3547V19.7838H7.625V20.7568Z" fill="white"/>
<path d="M19.4893 16.7786V18.3784H5.48926V16.7786H19.4893ZM19.6895 16.6006V4.1562C19.6895 4.05801 19.5997 3.97824 19.4893 3.97824H5.48926C5.3788 3.97824 5.28906 4.05801 5.28906 4.1562V16.6006C5.28906 16.6988 5.3788 16.7786 5.48926 16.7786V18.3784L5.28516 18.3689C4.3436 18.284 3.59546 17.619 3.5 16.7821L3.48926 16.6006V4.1562C3.48926 3.17436 4.38469 2.37842 5.48926 2.37842H19.4893C20.5938 2.37842 21.4893 3.17436 21.4893 4.1562V16.6006C21.4893 17.5212 20.702 18.278 19.6934 18.3689L19.4893 18.3784V16.7786C19.5997 16.7786 19.6895 16.6988 19.6895 16.6006Z" fill="white"/>
<path d="M12.4899 8.59431C12.0168 8.59431 11.5631 8.78224 11.2285 9.11676C10.894 9.45129 10.7061 9.905 10.7061 10.3781C10.7061 10.8512 10.894 11.3049 11.2285 11.6394C11.5631 11.9739 12.0168 12.1619 12.4899 12.1619C12.963 12.1619 13.4167 11.9739 13.7512 11.6394C14.0857 11.3049 14.2736 10.8512 14.2736 10.3781C14.2736 9.905 14.0857 9.45129 13.7512 9.11676C13.4167 8.78224 12.963 8.59431 12.4899 8.59431ZM12.4899 7.62133C13.221 7.62133 13.9222 7.91178 14.4392 8.42877C14.9562 8.94576 15.2466 9.64695 15.2466 10.3781C15.2466 11.1092 14.9562 11.8104 14.4392 12.3274C13.9222 12.8444 13.221 13.1348 12.4899 13.1348C11.7587 13.1348 11.0575 12.8444 10.5405 12.3274C10.0236 11.8104 9.73311 11.1092 9.73311 10.3781C9.73311 9.64695 10.0236 8.94576 10.5405 8.42877C11.0575 7.91178 11.7587 7.62133 12.4899 7.62133ZM16.2858 7.29409L15.3682 8.21193L14.6567 7.50004L15.5742 6.58252L16.2858 7.29409ZM10.3231 13.2571L9.40554 14.1743L8.69397 13.4627L9.61149 12.5452L10.3231 13.2571ZM9.40554 6.58252L10.3234 7.50004L9.61149 8.2116L8.69397 7.29441L9.40554 6.58252ZM15.3686 12.5452L16.2858 13.4627L15.5742 14.1743L14.6567 13.2571L15.3686 12.5452ZM12.9932 5.51355V6.81085H11.9865V5.51355H12.9932ZM12.9932 13.946V15.2433H11.9865V13.946H12.9932ZM7.625 9.87506H8.9223V10.8818H7.625V9.87506ZM16.0574 9.87506H17.3547V10.8818H16.0574V9.87506Z" fill="white"/>
</svg>
