<svg width="25" height="24" viewBox="0 0 25 24" fill="none" xmlns="http://www.w3.org/2000/svg">
<path d="M12.4899 9.02668C12.0168 9.02668 11.5631 9.21461 11.2285 9.54914C10.894 9.88366 10.7061 10.3374 10.7061 10.8105C10.7061 11.2836 10.894 11.7373 11.2285 12.0718C11.5631 12.4063 12.0168 12.5942 12.4899 12.5942C12.963 12.5942 13.4167 12.4063 13.7512 12.0718C14.0857 11.7373 14.2736 11.2836 14.2736 10.8105C14.2736 10.3374 14.0857 9.88366 13.7512 9.54914C13.4167 9.21461 12.963 9.02668 12.4899 9.02668ZM12.4899 8.05371C13.221 8.05371 13.9222 8.34415 14.4392 8.86114C14.9562 9.37813 15.2466 10.0793 15.2466 10.8105C15.2466 11.5416 14.9562 12.2428 14.4392 12.7598C13.9222 13.2768 13.221 13.5672 12.4899 13.5672C11.7587 13.5672 11.0575 13.2768 10.5405 12.7598C10.0236 12.2428 9.73311 11.5416 9.73311 10.8105C9.73311 10.0793 10.0236 9.37813 10.5405 8.86114C11.0575 8.34415 11.7587 8.05371 12.4899 8.05371ZM15.93 7.37071C16.1265 7.5672 16.1265 7.88576 15.9301 8.08228L15.7242 8.28826C15.5276 8.48487 15.2089 8.48486 15.0123 8.28824C14.8159 8.09171 14.8159 7.77315 15.0124 7.57666L15.2184 7.37071C15.4149 7.1742 15.7335 7.1742 15.93 7.37071ZM9.96732 13.3336C10.1638 13.5302 10.1637 13.8488 9.96718 14.0452L9.76136 14.251C9.56483 14.4474 9.24627 14.4474 9.04979 14.2509C8.85328 14.0544 8.85328 13.7358 9.04979 13.5393L9.25557 13.3335C9.45212 13.137 9.77081 13.137 9.96732 13.3336ZM9.04974 7.37086C9.24624 7.17427 9.56491 7.1742 9.76149 7.37072L9.96731 7.57646C10.1639 7.77302 10.1639 8.09179 9.96729 8.28834C9.77076 8.48478 9.45222 8.48477 9.2557 8.28832L9.04988 8.08257C8.85332 7.88607 8.85325 7.56744 9.04974 7.37086ZM15.0126 13.3335C15.2092 13.137 15.5279 13.137 15.7245 13.3336L15.93 13.5393C16.1265 13.7358 16.1265 14.0544 15.93 14.2509C15.7335 14.4474 15.4149 14.4474 15.2183 14.251L15.0127 14.0454C14.8161 13.8488 14.816 13.5301 15.0126 13.3335ZM12.4899 5.94592C12.7679 5.94592 12.9932 6.17128 12.9932 6.44927V6.73987C12.9932 7.01786 12.7679 7.24322 12.4899 7.24322C12.2119 7.24322 11.9865 7.01786 11.9865 6.73987V6.44927C11.9865 6.17128 12.2119 5.94592 12.4899 5.94592ZM12.4899 14.3784C12.7679 14.3784 12.9932 14.6037 12.9932 14.8817V15.1723C12.9932 15.4503 12.7679 15.6757 12.4899 15.6757C12.2119 15.6757 11.9865 15.4503 11.9865 15.1723V14.8817C11.9865 14.6037 12.2119 14.3784 12.4899 14.3784ZM7.625 10.8108C7.625 10.5328 7.85036 10.3074 8.12835 10.3074H8.41895C8.69694 10.3074 8.9223 10.5328 8.9223 10.8108C8.9223 11.0888 8.69694 11.3141 8.41895 11.3141H8.12835C7.85036 11.3141 7.625 11.0888 7.625 10.8108ZM16.0574 10.8108C16.0574 10.5328 16.2828 10.3074 16.5608 10.3074H16.8514C17.1294 10.3074 17.3547 10.5328 17.3547 10.8108C17.3547 11.0888 17.1294 11.3141 16.8514 11.3141H16.5608C16.2828 11.3141 16.0574 11.0888 16.0574 10.8108Z" fill="white"/>
<path d="M7.625 21.1892H17.3547V20.2162H7.625V21.1892Z" fill="white"/>
<path d="M19.4893 17.211V18.8108H5.48926V17.211H19.4893ZM19.6895 17.033V4.58857C19.6895 4.49038 19.5997 4.41062 19.4893 4.41062H5.48926C5.3788 4.41062 5.28906 4.49039 5.28906 4.58857V17.033C5.28906 17.1312 5.3788 17.211 5.48926 17.211V18.8108L5.28516 18.8012C4.3436 18.7164 3.59546 18.0514 3.5 17.2144L3.48926 17.033V4.58857C3.48926 3.60673 4.38469 2.81079 5.48926 2.81079H19.4893C20.5938 2.81079 21.4893 3.60673 21.4893 4.58857V17.033C21.4893 17.9536 20.702 18.7103 19.6934 18.8012L19.4893 18.8108V17.211C19.5997 17.211 19.6895 17.1312 19.6895 17.033Z" fill="white"/>
</svg>
