<svg width="25" height="24" viewBox="0 0 25 24" fill="none" xmlns="http://www.w3.org/2000/svg">
<path d="M20.5384 4.58801V16.4952C20.5383 17.0312 20.3632 17.5525 20.0396 17.9798C19.716 18.4071 19.2616 18.717 18.7457 18.8623C18.2298 19.0077 17.6805 18.9805 17.1815 18.785C16.6824 18.5894 16.2609 18.2362 15.981 17.7791C15.7011 17.322 15.5782 16.7859 15.631 16.2526C15.6838 15.7192 15.9093 15.2176 16.2734 14.8242C16.6374 14.4308 17.12 14.167 17.6477 14.0731C18.1754 13.9792 18.7194 14.0602 19.1968 14.3038V9.17201L9.35797 9.95911V17.3897C9.35802 18.0249 9.11228 18.6356 8.67221 19.0938C8.23213 19.5519 7.63186 19.8221 6.9971 19.8476L6.89826 19.8494C6.52643 19.8492 6.15946 19.7648 5.82496 19.6024C5.49045 19.44 5.19712 19.2039 4.96701 18.9118C4.73691 18.6197 4.57602 18.2793 4.49644 17.9161C4.41686 17.5528 4.42067 17.1763 4.50758 16.8148C4.59449 16.4532 4.76223 16.1161 4.9982 15.8287C5.23417 15.5414 5.53222 15.3112 5.86994 15.1556C6.20766 15.0001 6.57626 14.9231 6.94802 14.9304C7.31979 14.9378 7.68504 15.0294 8.01631 15.1983V5.58978L20.5384 4.58801ZM6.89826 16.2716C6.75144 16.2716 6.60605 16.3005 6.47041 16.3567C6.33476 16.4129 6.2115 16.4953 6.10768 16.5991C6.00386 16.7029 5.92151 16.8262 5.86532 16.9618C5.80913 17.0975 5.78022 17.2428 5.78022 17.3897C5.78022 17.5365 5.80913 17.6819 5.86532 17.8175C5.92151 17.9532 6.00386 18.0764 6.10768 18.1802C6.2115 18.2841 6.33476 18.3664 6.47041 18.4226C6.60605 18.4788 6.75144 18.5077 6.89826 18.5077C7.19479 18.5077 7.47917 18.3899 7.68884 18.1802C7.89852 17.9706 8.01631 17.6862 8.01631 17.3897C8.01631 17.0931 7.89852 16.8088 7.68884 16.5991C7.47917 16.3894 7.19479 16.2716 6.89826 16.2716ZM18.0787 15.3772C17.7822 15.3772 17.4978 15.495 17.2882 15.7046C17.0785 15.9143 16.9607 16.1987 16.9607 16.4952C16.9607 16.7917 17.0785 17.0761 17.2882 17.2858C17.4978 17.4955 17.7822 17.6133 18.0787 17.6133C18.3753 17.6133 18.6596 17.4955 18.8693 17.2858C19.079 17.0761 19.1968 16.7917 19.1968 16.4952C19.1968 16.1987 19.079 15.9143 18.8693 15.7046C18.6596 15.495 18.3753 15.3772 18.0787 15.3772ZM19.1968 6.04148L9.35797 6.82858V8.61299L19.1968 7.82588V6.04148Z" fill="white"/>
</svg>
