<svg width="25" height="24" viewBox="0 0 25 24" fill="none" xmlns="http://www.w3.org/2000/svg">
<path d="M21.4385 5.099H3.53968C3.15856 5.099 2.84961 5.40795 2.84961 5.78907V18.2109C2.84961 18.5921 3.15856 18.901 3.53968 18.901H21.4385C21.8196 18.901 22.1286 18.592 22.1286 18.2109V5.78907C22.1286 5.40795 21.8196 5.099 21.4385 5.099ZM19.4326 6.47914L12.4891 11.8981L5.54553 6.47914H19.4326ZM4.22975 17.5209V7.20298L12.0645 13.3175C12.1858 13.4122 12.3352 13.4636 12.4891 13.4635C12.6429 13.4636 12.7924 13.4122 12.9136 13.3175L20.7484 7.20301V17.5209H4.22975Z" fill="white"/>
</svg>
