<svg width="25" height="24" viewBox="0 0 25 24" fill="none" xmlns="http://www.w3.org/2000/svg">
<path d="M19.698 4.5C20.6832 4.5 21.4893 5.31 21.4893 6.3V12.3C21.4893 12.84 21.131 13.2 20.5936 13.2C20.1458 13.2 19.7876 12.84 19.698 12.39V11.7H5.28051V17.7H14.1355C14.6729 17.7 15.0311 18.06 15.0311 18.6C15.0311 19.05 14.6729 19.41 14.225 19.5H5.28051C4.29532 19.5 3.48926 18.69 3.48926 17.7V6.3C3.48926 5.31 4.29532 4.5 5.28051 4.5H19.698ZM19.698 6.3H5.28051V9.9H19.698V6.3ZM7.07177 7.2C7.60914 7.2 7.96739 7.56 7.96739 8.1C7.96739 8.64 7.60914 9 7.07177 9C6.53439 9 6.17614 8.64 6.17614 8.1C6.17614 7.56 6.53439 7.2 7.07177 7.2ZM9.75865 7.2C10.296 7.2 10.6543 7.56 10.6543 8.1C10.6543 8.64 10.296 9 9.75865 9C9.22127 9 8.86302 8.64 8.86302 8.1C8.86302 7.56 9.22127 7.2 9.75865 7.2ZM12.4455 7.2C12.9829 7.2 13.3412 7.56 13.3412 8.1C13.3412 8.64 12.9829 9 12.4455 9C11.9081 9 11.5499 8.64 11.5499 8.1C11.5499 7.56 11.9081 7.2 12.4455 7.2Z" fill="white"/>
<path d="M5.28051 4.5C4.29532 4.5 3.48926 5.31 3.48926 6.3V12.3C3.48926 12.84 3.84751 13.2 4.38489 13.2C4.8327 13.2 5.19095 12.84 5.28051 12.39L5.28051 11.7H19.698V17.7H10.843C10.3057 17.7 9.9474 18.06 9.9474 18.6C9.9474 19.05 10.3057 19.41 10.7535 19.5H19.698C20.6832 19.5 21.4893 18.69 21.4893 17.7V6.3C21.4893 5.31 20.6832 4.5 19.698 4.5H5.28051ZM5.28051 6.3H19.698V9.9H5.28051V6.3Z" fill="white"/>
</svg>
