<svg width="25" height="24" viewBox="0 0 25 24" fill="none" xmlns="http://www.w3.org/2000/svg">
<path d="M7.3412 9.53267H8.69923V10.8907C8.69923 10.9262 8.73476 10.9539 8.77819 10.9539H9.72565C9.76907 10.9539 9.8046 10.9262 9.8046 10.8887V9.53267H11.1626C11.1982 9.53267 11.2258 9.49714 11.2258 9.45371V8.50625C11.2258 8.46282 11.1982 8.42729 11.1607 8.42729H9.8046V7.06927C9.8046 7.03374 9.76907 7.0061 9.72565 7.0061H8.77819C8.73476 7.0061 8.69923 7.03374 8.69923 7.06927V8.42729H7.3412C7.30567 8.42729 7.27804 8.46282 7.27804 8.50625V9.45371C7.27804 9.49714 7.30567 9.53267 7.3412 9.53267ZM13.8155 9.53267H17.6369C17.6725 9.53267 17.7001 9.49714 17.7001 9.45371V8.50625C17.7001 8.46282 17.6725 8.42729 17.635 8.42729H13.8155C13.78 8.42729 13.7524 8.46282 13.7524 8.50625V9.45371C13.7524 9.49714 13.78 9.53267 13.8155 9.53267ZM13.8155 14.7634H17.6369C17.6725 14.7634 17.7001 14.7279 17.7001 14.6845V13.737C17.7001 13.6936 17.6725 13.6581 17.635 13.6581H13.8155C13.78 13.6581 13.7524 13.6936 13.7524 13.737V14.6845C13.7524 14.7279 13.78 14.7634 13.8155 14.7634ZM13.8155 16.8163H17.6369C17.6725 16.8163 17.7001 16.7807 17.7001 16.7373V15.7899C17.7001 15.7464 17.6725 15.7109 17.635 15.7109H13.8155C13.78 15.7109 13.7524 15.7464 13.7524 15.7899V16.7373C13.7524 16.7807 13.78 16.8163 13.8155 16.8163ZM9.95264 15.2174L11.1607 13.739C11.2455 13.6364 11.1745 13.4804 11.0442 13.4804H10.0415C9.99607 13.4804 9.95264 13.5002 9.92501 13.5377L9.25389 14.3588L8.58277 13.5377C8.55316 13.5021 8.50974 13.4804 8.46631 13.4804H7.46161C7.33133 13.4804 7.26028 13.6364 7.34515 13.739L8.55316 15.2174L7.31554 16.7334C7.22869 16.836 7.29975 16.9919 7.43003 16.9919H8.43276C8.47816 16.9919 8.52158 16.9722 8.54922 16.9347L9.24994 16.0761L9.95067 16.9347C9.98028 16.9702 10.0237 16.9919 10.0671 16.9919H11.0699C11.2001 16.9919 11.2712 16.836 11.1863 16.7334L9.95264 15.2174Z" fill="white"/>
<path d="M19.7531 4.10449H5.22539C4.87601 4.10449 4.59375 4.38676 4.59375 4.73613V19.2639C4.59375 19.6132 4.87601 19.8955 5.22539 19.8955H19.7531C20.1025 19.8955 20.3848 19.6132 20.3848 19.2639V4.73613C20.3848 4.38676 20.1025 4.10449 19.7531 4.10449ZM19.0425 18.5533H5.93599V5.44673H19.0425V18.5533Z" fill="white"/>
</svg>
