<svg width="25" height="24" viewBox="0 0 25 24" fill="none" xmlns="http://www.w3.org/2000/svg">
<path d="M19.698 4.5C20.6832 4.5 21.4893 5.31 21.4893 6.3V12.3C21.4893 12.84 21.131 13.2 20.5936 13.2C20.1458 13.2 19.7876 12.84 19.698 12.39V11.7H5.28051V17.7H9.75865C10.296 17.7 10.6543 18.06 10.6543 18.6C10.6543 19.05 10.296 19.41 9.84821 19.5H5.28051C4.29532 19.5 3.48926 18.69 3.48926 17.7V6.3C3.48926 5.31 4.29532 4.5 5.28051 4.5H19.698ZM19.3419 13.65L21.2227 15.54C21.5809 15.9 21.5809 16.44 21.2227 16.8L19.3419 18.69C18.9836 19.05 18.4462 19.05 18.088 18.69C17.7297 18.33 17.7297 17.79 18.088 17.43L18.4462 17.07H12.8933C12.356 17.07 11.9977 16.71 11.9977 16.17C11.9977 15.63 12.356 15.27 12.8933 15.27H18.4462L18.088 14.91C17.7297 14.55 17.7297 14.01 18.088 13.65C18.4462 13.29 18.9836 13.29 19.3419 13.65ZM19.698 6.3H5.28051V9.9H19.698V6.3ZM7.07177 7.2C7.60914 7.2 7.96739 7.56 7.96739 8.1C7.96739 8.64 7.60914 9 7.07177 9C6.53439 9 6.17614 8.64 6.17614 8.1C6.17614 7.56 6.53439 7.2 7.07177 7.2ZM9.75865 7.2C10.296 7.2 10.6543 7.56 10.6543 8.1C10.6543 8.64 10.296 9 9.75865 9C9.22127 9 8.86302 8.64 8.86302 8.1C8.86302 7.56 9.22127 7.2 9.75865 7.2ZM12.4455 7.2C12.9829 7.2 13.3412 7.56 13.3412 8.1C13.3412 8.64 12.9829 9 12.4455 9C11.9081 9 11.5499 8.64 11.5499 8.1C11.5499 7.56 11.9081 7.2 12.4455 7.2Z" fill="white"/>
</svg>
