<svg width="25" height="24" viewBox="0 0 25 24" fill="none" xmlns="http://www.w3.org/2000/svg">
<path d="M5.28051 4.5C4.29532 4.5 3.48926 5.31 3.48926 6.3V12.3C3.48926 12.84 3.84751 13.2 4.38489 13.2C4.8327 13.2 5.19095 12.84 5.28051 12.39V11.7H19.7V17.7H15.2218C14.6844 17.7 14.3262 18.06 14.3262 18.6C14.3262 19.05 14.6844 19.41 15.1323 19.5H19.7C20.6851 19.5 21.4912 18.69 21.4912 17.7V6.3C21.4912 5.31 20.6851 4.5 19.7 4.5H5.28051ZM5.63862 13.65L3.7578 15.54C3.39955 15.9 3.39955 16.44 3.7578 16.8L5.63862 18.69C5.99687 19.05 6.53424 19.05 6.89249 18.69C7.25074 18.33 7.25074 17.79 6.89249 17.43L6.53424 17.07H12.0871C12.6245 17.07 12.9828 16.71 12.9828 16.17C12.9828 15.63 12.6245 15.27 12.0871 15.27H6.53424L6.89249 14.91C7.25074 14.55 7.25074 14.01 6.89249 13.65C6.53424 13.29 5.99687 13.29 5.63862 13.65ZM5.28051 6.3H19.7V9.9H5.28051V6.3Z" fill="white"/>
<path d="M7.96801 8.09995C7.96801 7.55995 7.60976 7.19995 7.07238 7.19995C6.53501 7.19995 6.17676 7.55995 6.17676 8.09995C6.17676 8.63995 6.53501 8.99995 7.07238 8.99995C7.60976 8.99995 7.96801 8.63995 7.96801 8.09995Z" fill="white"/>
<path d="M10.6549 8.09995C10.6549 7.55995 10.2966 7.19995 9.75926 7.19995C9.22189 7.19995 8.86364 7.55995 8.86364 8.09995C8.86364 8.63995 9.22189 8.99995 9.75926 8.99995C10.2966 8.99995 10.6549 8.63995 10.6549 8.09995Z" fill="white"/>
<path d="M13.3418 8.09995C13.3418 7.55995 12.9835 7.19995 12.4461 7.19995C11.9088 7.19995 11.5505 7.55995 11.5505 8.09995C11.5505 8.63995 11.9088 8.99995 12.4461 8.99995C12.9835 8.99995 13.3418 8.63995 13.3418 8.09995Z" fill="white"/>
</svg>
