<svg width="25" height="24" viewBox="0 0 25 24" fill="none" xmlns="http://www.w3.org/2000/svg">
<path d="M19.8809 4.50977C20.7809 4.60257 21.4892 5.37191 21.4893 6.2998V17.7002C21.4892 18.69 20.6833 19.4999 19.6982 19.5H5.28027C4.29526 19.4999 3.48936 18.69 3.48926 17.7002V6.2998C3.48936 5.30997 4.29526 4.50013 5.28027 4.5H19.6982C19.7599 4.50001 19.8208 4.50357 19.8809 4.50977ZM5.28027 9.90039H11.6255C12.1225 9.90039 12.5254 10.3033 12.5254 10.8003C12.5254 11.2973 12.1225 11.7002 11.6255 11.7002H5.28027V17.7002H19.6982V11.7002H19.6953V9.90039H19.6982V6.2998H5.28027V9.90039ZM7.07129 7.2002C7.60854 7.2002 7.9676 7.55983 7.96777 8.09961C7.96777 8.63961 7.60866 9 7.07129 9C6.53418 8.99979 6.17578 8.63945 6.17578 8.09961C6.17595 7.55999 6.53431 7.20041 7.07129 7.2002ZM9.75879 7.2002C10.296 7.20026 10.6541 7.55987 10.6543 8.09961C10.6543 8.63956 10.2961 8.99994 9.75879 9C9.22141 9 8.86328 8.63961 8.86328 8.09961C8.86345 7.55983 9.22154 7.2002 9.75879 7.2002Z" fill="white"/>
<path d="M14.1816 4.5H18.4873V11.8342L16.3345 10.202L14.1816 11.8342V4.5Z" fill="white"/>
</svg>
