<svg width="25" height="24" viewBox="0 0 25 24" fill="none" xmlns="http://www.w3.org/2000/svg">
<path d="M19.698 4.5C20.6832 4.5 21.4893 5.31 21.4893 6.3V12.3C21.4893 12.84 21.131 13.2 20.5936 13.2C20.1458 13.2 19.7876 12.84 19.698 12.39V11.7H5.28051V17.7H14.1355C14.6729 17.7 15.0311 18.06 15.0311 18.6C15.0311 19.05 14.6729 19.41 14.225 19.5H5.28051C4.29532 19.5 3.48926 18.69 3.48926 17.7V6.3C3.48926 5.31 4.29532 4.5 5.28051 4.5H19.698ZM19.698 6.3H5.28051V9.9H19.698V6.3ZM7.07177 7.2C7.60914 7.2 7.96739 7.56 7.96739 8.1C7.96739 8.64 7.60914 9 7.07177 9C6.53439 9 6.17614 8.64 6.17614 8.1C6.17614 7.56 6.53439 7.2 7.07177 7.2ZM9.75865 7.2C10.296 7.2 10.6543 7.56 10.6543 8.1C10.6543 8.64 10.296 9 9.75865 9C9.22127 9 8.86302 8.64 8.86302 8.1C8.86302 7.56 9.22127 7.2 9.75865 7.2ZM12.4455 7.2C12.9829 7.2 13.3412 7.56 13.3412 8.1C13.3412 8.64 12.9829 9 12.4455 9C11.9081 9 11.5499 8.64 11.5499 8.1C11.5499 7.56 11.9081 7.2 12.4455 7.2Z" fill="white"/>
<path d="M18.7589 19.2209C18.0661 19.2209 17.4793 18.9805 16.9985 18.4997C16.5177 18.0189 16.2773 17.4321 16.2773 16.7393C16.2773 16.0466 16.5177 15.4598 16.9985 14.979C17.4793 14.4982 18.0661 14.2578 18.7589 14.2578C19.1156 14.2578 19.4568 14.3314 19.7825 14.4787C20.1082 14.6259 20.3874 14.8366 20.62 15.1108V14.568C20.62 14.3967 20.7589 14.2578 20.9302 14.2578C21.1015 14.2578 21.2404 14.3967 21.2404 14.568V16.4291H19.3793C19.2079 16.4291 19.0691 16.2903 19.0691 16.119C19.0691 15.9476 19.2079 15.8088 19.3793 15.8088H20.3719C20.2064 15.5193 19.9803 15.2918 19.6935 15.1263C19.4067 14.9609 19.0951 14.8782 18.7589 14.8782C18.2419 14.8782 17.8024 15.0591 17.4406 15.421C17.0787 15.7829 16.8977 16.2224 16.8977 16.7393C16.8977 17.2563 17.0787 17.6958 17.4406 18.0577C17.8024 18.4195 18.2419 18.6005 18.7589 18.6005C19.1569 18.6005 19.5163 18.4867 19.8368 18.2593C20.0938 18.0769 20.2892 17.848 20.4233 17.5726C20.4837 17.4485 20.604 17.3597 20.742 17.3597C20.9546 17.3597 21.1104 17.5622 21.0241 17.7566C20.8593 18.1277 20.6108 18.4426 20.2788 18.7013C19.8342 19.0477 19.3276 19.2209 18.7589 19.2209Z" fill="white"/>
<path d="M16.8977 16.7393C16.8977 16.2224 17.0787 15.7829 17.4406 15.421C17.8024 15.0591 18.2419 14.8782 18.7589 14.8782C19.0951 14.8782 19.4067 14.9609 19.6935 15.1263C19.9803 15.2918 20.2064 15.5193 20.3719 15.8088H19.3793L19.3789 15.5586H19.8574C19.7704 15.4774 19.6751 15.4043 19.5684 15.3428C19.3202 15.1997 19.0518 15.1279 18.7588 15.1279C18.3074 15.1279 17.9316 15.2832 17.6172 15.5977C17.3027 15.9121 17.1475 16.2879 17.1475 16.7393C17.1475 17.1907 17.3028 17.5664 17.6172 17.8809C17.9316 18.1953 18.3074 18.3506 18.7588 18.3506L18.7589 18.6005L18.5684 18.5918C18.1331 18.5522 17.7571 18.3742 17.4406 18.0577C17.0787 17.6958 16.8977 17.2563 16.8977 16.7393ZM21.2404 14.568C21.2404 14.4182 21.1343 14.2927 20.9932 14.2637L20.9302 14.2578C20.7589 14.2578 20.62 14.3967 20.62 14.568V15.1108C20.3874 14.8366 20.1082 14.6259 19.7825 14.4787C19.4568 14.3314 19.1156 14.2578 18.7589 14.2578C18.0661 14.2578 17.4793 14.4982 16.9985 14.979L16.8291 15.1641C16.4611 15.6079 16.2774 16.1332 16.2773 16.7393C16.2773 17.4321 16.5177 18.0189 16.9985 18.4997C17.4793 18.9805 18.0661 19.2209 18.7589 19.2209C19.3276 19.2209 19.8342 19.0477 20.2788 18.7013C20.5692 18.4751 20.7955 18.2058 20.958 17.8936L21.0241 17.7566C21.0996 17.5864 20.9896 17.4104 20.8184 17.3691L20.742 17.3597C20.604 17.3597 20.4837 17.4485 20.4233 17.5726C20.2892 17.848 20.0938 18.0769 19.8368 18.2593L19.7148 18.3389C19.4258 18.5131 19.1073 18.6005 18.7589 18.6005L18.7588 18.3506C19.1057 18.3506 19.4147 18.2527 19.6924 18.0557C19.9161 17.8969 20.0831 17.6994 20.1982 17.4629C20.2929 17.2686 20.4922 17.1094 20.7422 17.1094C21.1018 17.1095 21.4259 17.469 21.2529 17.8584C21.0708 18.2684 20.7958 18.6155 20.4326 18.8984C19.9437 19.2794 19.3826 19.4707 18.7588 19.4707C18.0012 19.4707 17.3499 19.2054 16.8213 18.6768C16.2927 18.1481 16.0273 17.4969 16.0273 16.7393C16.0274 15.9816 16.2926 15.3304 16.8213 14.8018C17.3499 14.2731 18.0012 14.0078 18.7588 14.0078C19.1511 14.0078 19.5277 14.0891 19.8857 14.251C20.0603 14.3299 20.2226 14.426 20.373 14.5381C20.3887 14.2427 20.6314 14.0078 20.9307 14.0078C21.2398 14.0081 21.4902 14.2591 21.4902 14.5684V16.6787H19.3789C19.0697 16.6785 18.8194 16.4283 18.8193 16.1191C18.8193 15.8099 19.0697 15.5588 19.3789 15.5586L19.3793 15.8088C19.2079 15.8088 19.0691 15.9476 19.0691 16.119L19.0752 16.1816C19.1041 16.3228 19.2296 16.429 19.3793 16.4291H21.2404V14.568Z" fill="white"/>
</svg>
