<svg width="25" height="24" viewBox="0 0 25 24" fill="none" xmlns="http://www.w3.org/2000/svg">
<path d="M19.698 4.5C20.6832 4.5 21.4893 5.31 21.4893 6.3V12.3C21.4893 12.84 21.131 13.2 20.5936 13.2C20.1458 13.2 19.7876 12.84 19.698 12.39V11.7H5.28051V17.7H14.1355C14.6729 17.7 15.0311 18.06 15.0311 18.6C15.0311 19.05 14.6729 19.41 14.225 19.5H5.28051C4.29532 19.5 3.48926 18.69 3.48926 17.7V6.3C3.48926 5.31 4.29532 4.5 5.28051 4.5H19.698ZM19.698 6.3H5.28051V9.9H19.698V6.3ZM7.07177 7.2C7.60914 7.2 7.96739 7.56 7.96739 8.1C7.96739 8.64 7.60914 9 7.07177 9C6.53439 9 6.17614 8.64 6.17614 8.1C6.17614 7.56 6.53439 7.2 7.07177 7.2ZM9.75865 7.2C10.296 7.2 10.6543 7.56 10.6543 8.1C10.6543 8.64 10.296 9 9.75865 9C9.22127 9 8.86302 8.64 8.86302 8.1C8.86302 7.56 9.22127 7.2 9.75865 7.2ZM12.4455 7.2C12.9829 7.2 13.3412 7.56 13.3412 8.1C13.3412 8.64 12.9829 9 12.4455 9C11.9081 9 11.5499 8.64 11.5499 8.1C11.5499 7.56 11.9081 7.2 12.4455 7.2Z" fill="white"/>
<path d="M19.9238 14.5563C20.2753 14.205 20.8449 14.205 21.1963 14.5563C21.5478 14.9077 21.5478 15.4782 21.1963 15.8297L20.126 16.899L21.1963 17.9694C21.5478 18.3208 21.5478 18.8913 21.1963 19.2428C20.8449 19.5939 20.2752 19.594 19.9238 19.2428L18.8535 18.1725L17.7832 19.2428C17.4318 19.594 16.8622 19.5939 16.5107 19.2428C16.1593 18.8913 16.1593 18.3208 16.5107 17.9694L17.5801 16.899L16.5107 15.8297C16.1593 15.4782 16.1593 14.9077 16.5107 14.5563C16.8622 14.205 17.4318 14.205 17.7832 14.5563L18.8535 15.6266L19.9238 14.5563Z" fill="white"/>
</svg>
