<svg width="25" height="24" viewBox="0 0 25 24" fill="none" xmlns="http://www.w3.org/2000/svg">
<path d="M19.4893 19.2002V21H5.48926V19.2002H19.4893ZM19.6895 19V5C19.6895 4.88954 19.5997 4.7998 19.4893 4.7998H5.48926C5.3788 4.7998 5.28906 4.88954 5.28906 5V19C5.28906 19.1105 5.3788 19.2002 5.48926 19.2002V21L5.28516 20.9893C4.3436 20.8938 3.59546 20.1457 3.5 19.2041L3.48926 19V5C3.48926 3.89543 4.38469 3 5.48926 3H19.4893C20.5938 3 21.4893 3.89543 21.4893 5V19C21.4893 20.0357 20.702 20.887 19.6934 20.9893L19.4893 21V19.2002C19.5997 19.2002 19.6895 19.1105 19.6895 19Z" fill="white"/>
<rect x="6.8457" y="6.35596" width="2.76259" height="2.76259" rx="0.5" fill="white"/>
<rect x="6.8457" y="6.35596" width="2.76259" height="2.76259" rx="0.5" fill="white"/>
<rect x="6.8457" y="10.6234" width="2.76259" height="2.76259" rx="0.5" fill="white"/>
<rect x="6.8457" y="14.8813" width="2.76259" height="2.76259" rx="0.5" fill="white"/>
<rect x="11.1084" y="6.35596" width="2.76259" height="2.76259" rx="0.5" fill="white"/>
<rect x="11.1084" y="10.6234" width="2.76259" height="2.76259" rx="0.5" fill="white"/>
<rect x="11.1084" y="14.8813" width="2.76259" height="2.76259" rx="0.5" fill="white"/>
<rect x="15.3711" y="6.35596" width="2.76259" height="2.76259" rx="0.5" fill="white"/>
<rect x="15.3711" y="10.6234" width="2.76259" height="2.76259" rx="0.5" fill="white"/>
<rect x="15.3711" y="14.8813" width="2.76259" height="2.76259" rx="0.5" fill="white"/>
</svg>
