<svg width="25" height="24" viewBox="0 0 25 24" fill="none" xmlns="http://www.w3.org/2000/svg">
<path d="M19.4893 19.2002V21H5.48926V19.2002H19.4893ZM19.6895 19V5C19.6895 4.88954 19.5997 4.7998 19.4893 4.7998H5.48926C5.3788 4.7998 5.28906 4.88954 5.28906 5V19C5.28906 19.1105 5.3788 19.2002 5.48926 19.2002V21L5.28516 20.9893C4.3436 20.8938 3.59546 20.1457 3.5 19.2041L3.48926 19V5C3.48926 3.89543 4.38469 3 5.48926 3H19.4893C20.5938 3 21.4893 3.89543 21.4893 5V19C21.4893 20.0357 20.702 20.887 19.6934 20.9893L19.4893 21V19.2002C19.5997 19.2002 19.6895 19.1105 19.6895 19Z" fill="white"/>
<path d="M14.1639 20.3736C13.9859 20.3736 13.8156 20.2764 13.73 20.1071C13.3953 19.4465 13.1336 18.748 12.9517 18.031C12.7958 17.4355 12.6904 16.8279 12.6365 16.2146C10.4962 16.236 8.47651 15.7973 7.16119 15.0102C7.10373 14.9759 7.05394 14.9301 7.01494 14.8757C6.97594 14.8213 6.94857 14.7595 6.93452 14.694C6.9063 14.5617 6.93452 14.4236 7.01235 14.3127L7.39176 13.7747C7.45896 13.6792 7.55828 13.6112 7.67154 13.583C7.7848 13.5547 7.90443 13.5682 8.00856 13.621C9.34042 14.2942 10.7783 14.5919 12.62 14.5705C12.6404 14.2475 12.6754 13.9372 12.7231 13.6424H10.7608C10.696 13.6425 10.6319 13.6296 10.5722 13.6045C10.5125 13.5794 10.4584 13.5426 10.4132 13.4963C10.3679 13.4499 10.3324 13.395 10.3087 13.3347C10.2851 13.2744 10.2737 13.21 10.2753 13.1452C10.3425 10.0953 11.5498 7.51331 12.5509 5.88473C12.9965 5.15702 13.5014 4.45656 14.0501 3.80085C14.091 3.75183 14.1412 3.71136 14.1978 3.68175C14.2544 3.65214 14.3162 3.63397 14.3798 3.62828C14.4434 3.62259 14.5075 3.62948 14.5685 3.64858C14.6294 3.66767 14.686 3.69859 14.735 3.73956L15.2379 4.15886C15.4422 4.32911 15.4714 4.63265 15.3031 4.83987C14.8951 5.34082 14.5138 5.86301 14.161 6.40424C12.9819 8.21475 12.2571 10.0934 12.0022 11.9963H14.1532C14.305 11.9963 14.448 12.0673 14.5394 12.1879C14.6309 12.3086 14.662 12.4652 14.6221 12.6111C14.4859 13.1092 14.3332 13.7387 14.2709 14.4353C15.4413 14.264 16.0873 14.0607 16.9696 13.6151C17.0738 13.5626 17.1934 13.5492 17.3066 13.5775C17.4198 13.6057 17.5191 13.6736 17.5864 13.7688L17.9659 14.3068C18.0437 14.4177 18.0719 14.5559 18.0437 14.6882C18.0298 14.7537 18.0025 14.8156 17.9635 14.8701C17.9245 14.9245 17.8746 14.9702 17.817 15.0044C16.9288 15.5356 15.6816 15.9169 14.267 16.095C14.3137 16.6631 14.4168 17.2274 14.5744 17.7751C14.733 18.3258 14.9441 18.8638 15.2029 19.3745C15.2323 19.4322 15.2498 19.4951 15.2545 19.5597C15.2592 19.6242 15.2509 19.689 15.2301 19.7503C15.2094 19.8116 15.1766 19.8681 15.1336 19.9165C15.0907 19.9649 15.0385 20.0042 14.9801 20.0322L14.376 20.3231C14.3079 20.3561 14.2359 20.3717 14.1649 20.3717L14.1639 20.3736ZM8.53499 10.1109H7.78978C7.52126 10.1109 7.30334 9.89294 7.30334 9.62443V7.883C7.30334 7.61449 7.52126 7.39657 7.78978 7.39657H8.53499C8.8035 7.39657 9.02143 7.61449 9.02143 7.883V9.62443C9.02143 9.89294 8.8035 10.1109 8.53499 10.1109ZM16.7078 10.1099H15.9626C15.6941 10.1099 15.4762 9.89197 15.4762 9.62346V7.88203C15.4762 7.61351 15.6941 7.39559 15.9626 7.39559H16.7078C16.9763 7.39559 17.1943 7.61351 17.1943 7.88203V9.62346C17.1943 9.89197 16.9763 10.1099 16.7078 10.1099Z" fill="white"/>
</svg>
